<svg width="77" height="77" viewBox="0 0 77 77" fill="none" xmlns="http://www.w3.org/2000/svg">
<path d="M33.2535 77H59.4899C60.0802 77 60.5558 76.5319 60.5558 75.9507V54.8363L60.6542 54.7556C68.6727 48.4438 73.0181 38.6614 72.2966 28.5723C71.0996 12.5589 57.391 0 41.0916 0C40.3209 0 39.5502 0.0322851 38.7795 0.0807128C25.94 1.00084 15.1339 9.39497 11.2312 21.4857L4.6721 47.2977C4.60651 47.5721 4.63931 47.8465 4.78689 48.0887C4.93447 48.3308 5.16404 48.4922 5.4428 48.573C5.52479 48.5891 5.60678 48.6052 5.70517 48.6052H15.1339V52.7216C15.1339 57.5644 19.1514 61.5193 24.0707 61.5193H32.1876V75.9669C32.1876 76.5319 32.6631 77 33.2535 77ZM24.0707 59.4046C20.3156 59.4046 17.2656 56.4021 17.2656 52.7055V47.5398C17.2656 46.9587 16.7901 46.4906 16.1998 46.4906H7.06618L13.2645 22.0346C15.1831 16.0941 18.889 11.0577 24.0051 7.42558C29.0228 3.87421 34.9096 2.00168 41.0588 2.00168C44.0432 2.00168 47.0276 2.45367 49.8972 3.35765C57.3254 5.68218 63.3762 10.7025 66.9509 17.5147C70.5256 24.3268 71.2143 32.1237 68.8531 39.4201C67.0493 45.0377 63.573 49.8966 58.834 53.4803C58.5717 53.674 58.4241 53.9807 58.4241 54.3197V74.9015H34.3193V60.4539C34.3193 59.8727 33.8438 59.4046 33.2535 59.4046H24.0707Z" fill="url(#paint0_linear)"/>
<path d="M59.7187 31.4782V24.4885H56.9311C56.554 22.9065 55.9309 21.4214 55.0618 20.0493L57.0295 18.1122L52.0118 13.1725L50.044 15.1096C48.6502 14.2541 47.1252 13.6407 45.5347 13.2694V10.5251H38.418V13.2694C36.811 13.6407 35.3024 14.2541 33.9086 15.1096L31.9409 13.1725L26.9232 18.1122L28.8909 20.0493C28.0218 21.4214 27.3987 22.9226 27.0216 24.4885H24.2175V31.4782H27.0052C27.3823 33.0602 28.0054 34.5453 28.8745 35.9174L26.9068 37.8545L31.9245 42.7941L33.9086 40.8409C34.171 41.0023 34.4334 41.1476 34.7285 41.2929L35.8436 39.2428H37.2374V35.9981C34.417 34.3839 32.4984 31.3813 32.4984 27.9268C32.4984 22.7774 36.7454 18.6126 41.9599 18.6126C47.1744 18.6126 51.4215 22.7935 51.4215 27.9268C51.4215 31.3813 49.5193 34.3839 46.6825 35.9981V39.2266H48.0927L49.2242 41.2767C49.5029 41.1314 49.7653 40.9862 50.0113 40.8409L51.9954 42.7941L57.0131 37.8545L55.0454 35.9174C55.9145 34.5453 56.5376 33.044 56.9147 31.4782H59.7187C59.7187 31.4943 59.7187 31.4782 59.7187 31.4782Z" fill="#BDD0FA"/>
<path d="M47.8468 38.7098L47.6828 38.6775V36.5628L47.7812 36.4983C50.6836 34.5773 52.4217 31.3811 52.4217 27.9588C52.4217 22.2928 47.732 17.676 41.9763 17.676C36.2207 17.676 31.5309 22.2928 31.5309 27.975C31.5309 31.3972 33.2691 34.5934 36.1715 36.5144L36.2699 36.579V38.6936L36.1059 38.7259C34.8269 38.9842 33.9086 40.098 33.9086 41.3894C33.9086 42.3257 34.3842 43.1813 35.204 43.6817L35.3516 43.7624L35.286 43.9238C35.1549 44.2467 35.0893 44.5695 35.0893 44.8924C35.0893 46.3936 36.3191 47.6043 37.8441 47.6043H46.125C47.65 47.6043 48.8798 46.3936 48.8798 44.8924C48.8798 44.5695 48.8142 44.2467 48.683 43.9238L48.6174 43.7624L48.765 43.6817C49.5685 43.1813 50.0605 42.3257 50.0605 41.3894C50.0441 40.0819 49.1258 38.9681 47.8468 38.7098ZM33.4823 27.975C33.4823 23.3582 37.2866 19.6131 41.9763 19.6131C46.6661 19.6131 50.4704 23.3582 50.4704 27.975C50.4704 30.9452 48.847 33.7056 46.2234 35.2068L45.7314 35.4813V38.6614H42.9602V31.1066L43.0914 31.0582C44.4196 30.5901 45.3215 29.3471 45.3215 27.975C45.3215 26.1509 43.8129 24.6819 41.9763 24.6819C40.1234 24.6819 38.6312 26.167 38.6312 27.975C38.6312 29.3632 39.5331 30.5901 40.8613 31.0582L40.9925 31.1066V38.6614H38.2212V35.4813L37.7293 35.2068C35.1057 33.7056 33.4823 30.9291 33.4823 27.975ZM41.9763 29.331C41.2056 29.331 40.5825 28.7175 40.5825 27.9588C40.5825 27.2001 41.2056 26.5867 41.9763 26.5867C42.747 26.5867 43.3702 27.2001 43.3702 27.9588C43.3702 28.7175 42.7306 29.331 41.9763 29.331ZM46.1086 45.6511H37.8277C37.385 45.6511 37.0242 45.2959 37.0242 44.8601C37.0242 44.4242 37.385 44.0691 37.8277 44.0691H46.1086C46.5513 44.0691 46.9121 44.4242 46.9121 44.8601C46.9121 45.2959 46.5513 45.6511 46.1086 45.6511ZM47.2892 42.1481H36.6307C36.1879 42.1481 35.8272 41.793 35.8272 41.3572C35.8272 40.9213 36.1879 40.5662 36.6307 40.5662H47.2892C47.732 40.5662 48.0927 40.9213 48.0927 41.3572C48.0927 41.793 47.732 42.1481 47.2892 42.1481Z" fill="url(#paint1_linear)"/>
<defs>
<linearGradient id="paint0_linear" x1="38.507" y1="0" x2="38.507" y2="77" gradientUnits="userSpaceOnUse">
<stop stop-color="#2261EF"/>
<stop offset="1" stop-color="#017EFE"/>
</linearGradient>
<linearGradient id="paint1_linear" x1="41.9763" y1="17.676" x2="41.9763" y2="47.6043" gradientUnits="userSpaceOnUse">
<stop stop-color="#2261EF"/>
<stop offset="1" stop-color="#017EFE"/>
</linearGradient>
</defs>
</svg>
