<svg width="76" height="85" viewBox="0 0 76 85" fill="none" xmlns="http://www.w3.org/2000/svg">
<g clip-path="url(#clip0)">
<path d="M57.7531 47.8463V53.149V58.504H56.4276H48.5436L45.9099 53.1664L48.5436 47.8289H56.4448H57.7703V47.8463H57.7531Z" fill="#BDD0FA"/>
<path d="M22.1889 38.4794H52.5028C54.689 38.4794 56.4621 40.2761 56.4621 42.4913V47.8289H48.5436L45.9099 53.1665L48.5436 58.5041H56.4448V63.8416C56.4448 66.0569 54.6718 67.8535 52.4856 67.8535H22.1889C20.0027 67.8535 18.2297 66.0569 18.2297 63.8416V53.149V47.8463V34.4675C18.2297 36.6828 20.0199 38.4794 22.1889 38.4794Z" fill="#BDD0FA"/>
<path d="M22.1889 30.4556H52.5028C54.689 30.4556 56.4621 32.2522 56.4621 34.4675V42.4738C56.4621 40.2586 54.689 38.4619 52.5028 38.4619H22.1889C20.0199 38.4619 18.2297 36.6653 18.2297 34.45C18.2297 32.2348 20.0199 30.4556 22.1889 30.4556Z" fill="#BDD0FA"/>
<path d="M49.8519 33.3511H24.8226C24.2202 33.3511 23.7209 33.8569 23.7209 34.4674C23.7209 35.0779 24.2202 35.5838 24.8226 35.5838H49.8519C50.4544 35.5838 50.9536 35.0779 50.9536 34.4674C50.9536 33.8569 50.4716 33.3511 49.8519 33.3511Z" fill="#116FFF"/>
<path d="M51.2118 52.05C50.5921 52.05 50.1101 52.5559 50.1101 53.1664C50.1101 53.7769 50.6093 54.2828 51.2118 54.2828C51.8143 54.2828 52.3135 53.7769 52.3135 53.1664C52.3135 52.5559 51.8315 52.05 51.2118 52.05Z" fill="#116FFF"/>
<path d="M1.11891 82.3312H34.4281L34.4797 82.4708C35.0134 83.9883 36.4249 85 38.0086 85C39.5923 85 41.0038 83.9883 41.5375 82.4708L41.5891 82.3312H74.8983C75.5008 82.3312 76 81.8254 76 81.2149C76 80.6043 75.5008 80.0985 74.8983 80.0985H41.5719L41.5203 79.959C41.1416 78.8949 40.2981 78.0228 39.248 77.6565L39.1103 77.6041V68.9698H52.5028C55.2915 68.9698 57.5638 66.6674 57.5638 63.8416V59.6204H57.7875C58.39 59.6204 58.8892 59.1145 58.8892 58.504V54.2653H59.0958C68.5807 53.9165 76.0172 46.102 76.0172 36.4734V31.1707C76.0172 21.6294 68.6496 13.8149 59.2679 13.3788H59.1474L59.0958 13.2567C55.0505 5.07593 46.9771 0 37.9914 0C26.4752 0 16.732 8.33778 14.8213 19.8502L14.7869 20.0246H14.2704C6.40362 20.0246 0 26.5134 0 34.5024V39.805C0 47.7765 6.40362 54.2653 14.2704 54.2653H17.128V63.8416C17.128 66.6674 19.4002 68.9698 22.1889 68.9698H36.8897V77.6041L36.752 77.6565C35.7019 78.0402 34.8412 78.8949 34.4797 79.959L34.4281 80.0985H1.11891C0.516421 80.0985 0.017214 80.6043 0.017214 81.2149C0.017214 81.8428 0.499207 82.3312 1.11891 82.3312ZM56.6686 57.3876H49.2322L47.1493 53.1664L49.2322 48.9452H56.6686V57.3876ZM55.3431 38.2352L55.0161 38.0433C54.2414 37.5898 53.3807 37.363 52.4856 37.363H22.1889C20.6224 37.363 19.3314 36.0722 19.3314 34.4675C19.3314 32.8802 20.6052 31.5719 22.1889 31.5719H52.4856C54.0521 31.5719 55.3431 32.8627 55.3431 34.4675V38.2352ZM72.6777 42.2645C70.4226 47.9161 65.0863 51.7535 59.0958 52.0152L58.872 52.0326V48.9627H59.0786C64.2772 48.7708 69.0972 46.259 72.3162 42.0726L73.263 40.8342L72.6777 42.2645ZM17.1452 52.0326H14.2704C9.1923 52.0326 4.63058 48.7708 2.90917 43.9216L2.49604 42.7529L3.28788 43.7123C6.02491 47.0439 10.0186 48.9627 14.2877 48.9627H17.1452V52.0326ZM17.1452 34.4675V46.7299H14.2704C7.60861 46.7299 2.2034 41.2354 2.2034 34.5024C2.2034 27.7519 7.62582 22.2748 14.2704 22.2748H14.5287L14.5114 22.5015C14.4942 22.9551 14.477 23.3911 14.477 23.8272C14.477 24.4377 14.9762 24.9436 15.5787 24.9436C16.1812 24.9436 16.6804 24.4377 16.6804 23.8272C16.6804 11.9311 26.2342 2.25015 37.9742 2.25015C49.7142 2.25015 59.2679 11.9311 59.2679 23.8272C59.2679 24.4377 59.7672 24.9436 60.3696 24.9436C60.9721 24.9436 61.4713 24.4377 61.4713 23.8272C61.4713 21.1584 61.041 18.5245 60.1803 16.0127L60.0598 15.6813L60.4041 15.7336C68.0127 16.7453 73.7622 23.3911 73.7622 31.1707C73.7622 39.7527 66.8766 46.7474 58.39 46.7474H57.9253C57.8564 46.7299 57.7875 46.7299 57.7359 46.7299H57.5121V34.5024C57.5121 31.6766 55.2399 29.3741 52.4512 29.3741H22.1545C19.4002 29.3392 17.1452 31.6417 17.1452 34.4675ZM22.1889 66.7371C20.6224 66.7371 19.3314 65.4463 19.3314 63.8416V38.7061L19.6584 38.898C20.4331 39.3515 21.2938 39.5783 22.1889 39.5783H52.4856C54.0521 39.5783 55.3431 40.8691 55.3431 42.4738V46.6951H48.5092C48.251 46.6951 48.0272 46.7997 47.8206 46.9567C47.7862 46.9916 47.769 47.009 47.7518 47.0265L47.5796 46.8869L47.7345 47.0439C47.7173 47.0614 47.7001 47.0962 47.6829 47.1137L47.4935 46.9916L47.6657 47.1311C47.6485 47.1486 47.6313 47.1835 47.614 47.2009C47.5968 47.2358 47.5796 47.2707 47.5624 47.2881L47.5452 47.3056L44.9459 52.5734C44.8942 52.6606 44.8598 52.7478 44.8426 52.8525C44.8254 52.8873 44.8254 52.9222 44.8254 52.9571C44.8254 52.992 44.8081 53.0269 44.8081 53.0618C44.8081 53.1315 44.8081 53.2013 44.8081 53.2711V53.2885C44.8081 53.3234 44.8254 53.3409 44.8254 53.3757C44.8254 53.4106 44.8426 53.4455 44.8598 53.4804L44.6704 53.5676L44.877 53.4978C44.877 53.5153 44.8942 53.5502 44.9114 53.5676L44.9286 53.6199L47.5624 58.975C47.5968 59.0273 47.614 59.0622 47.6313 59.1145L47.6485 59.132C47.6657 59.1668 47.7001 59.1843 47.7173 59.2192C47.7345 59.2366 47.7345 59.2366 47.7518 59.2541C47.7862 59.2889 47.8206 59.3238 47.855 59.3413L47.8723 59.3587C47.9067 59.3762 47.9411 59.411 47.9755 59.4285L48.01 59.4459C48.096 59.4983 48.1821 59.5331 48.2682 59.5506L48.2337 59.7599L48.2854 59.5506C48.3198 59.568 48.3542 59.568 48.4059 59.568H48.4403C48.492 59.568 48.5264 59.5855 48.578 59.5855H55.3776V63.8416C55.3776 65.4289 54.1037 66.7371 52.52 66.7371H22.1889ZM38.0086 79.6624C38.8521 79.6624 39.5407 80.3601 39.5407 81.2149C39.5407 82.0696 38.8521 82.7673 38.0086 82.7673C37.1651 82.7673 36.4766 82.0696 36.4766 81.2149C36.4766 80.3601 37.1651 79.6624 38.0086 79.6624Z" fill="url(#paint0_linear)"/>
</g>
<defs>
<linearGradient id="paint0_linear" x1="38.0086" y1="0" x2="38.0086" y2="85" gradientUnits="userSpaceOnUse">
<stop stop-color="#2261EF"/>
<stop offset="1" stop-color="#017EFE"/>
</linearGradient>
<clipPath id="clip0">
<rect width="76" height="85" fill="white"/>
</clipPath>
</defs>
</svg>
