<svg width="67" height="67" viewBox="0 0 67 67" fill="none" xmlns="http://www.w3.org/2000/svg">
<path d="M55.823 30.7554V3.54688C55.823 2.6642 55.4703 1.81768 54.8423 1.19354C54.2143 0.569391 53.3627 0.21875 52.4746 0.21875H3.3639C2.47583 0.21875 1.62414 0.569391 0.996182 1.19354C0.368225 1.81768 0.0154419 2.6642 0.0154419 3.54688V52.3594C0.0154419 53.2421 0.368225 54.0886 0.996182 54.7127C1.62414 55.3369 2.47583 55.6875 3.3639 55.6875H30.7386C32.0009 58.467 33.9229 60.9006 36.3396 62.7794C38.7564 64.6581 41.5958 65.926 44.614 66.474C47.6322 67.0221 50.7392 66.834 53.6682 65.926C56.5972 65.018 59.2608 63.4171 61.4303 61.2607C63.5998 59.1043 65.2105 56.4569 66.1241 53.5457C67.0377 50.6345 67.2269 47.5464 66.6755 44.5465C66.124 41.5466 64.8485 38.7245 62.9582 36.3224C61.068 33.9203 58.6196 32.01 55.823 30.7554ZM3.3639 2.4375H52.4746C52.7706 2.4375 53.0545 2.55438 53.2638 2.76243C53.4731 2.97048 53.5907 3.25265 53.5907 3.54688V9.09375H2.24775V3.54688C2.24775 3.25265 2.36534 2.97048 2.57466 2.76243C2.78398 2.55438 3.06788 2.4375 3.3639 2.4375ZM3.3639 53.4688C3.06788 53.4688 2.78398 53.3519 2.57466 53.1438C2.36534 52.9358 2.24775 52.6536 2.24775 52.3594V11.3125H53.5907V29.8979C50.2945 28.89 46.7842 28.7941 43.4373 29.6205C40.0903 30.4469 37.0332 32.1642 34.5947 34.588C32.1561 37.0118 30.4282 40.0503 29.5968 43.3769C28.7654 46.7036 28.8619 50.1925 29.8759 53.4688H3.3639ZM48.01 64.5625C44.6987 64.5625 41.4617 63.5865 38.7085 61.758C35.9552 59.9296 33.8093 57.3306 32.5421 54.29C31.2749 51.2493 30.9434 47.9034 31.5894 44.6755C32.2354 41.4475 33.8299 38.4824 36.1714 36.1552C38.5128 33.8279 41.496 32.2431 44.7437 31.601C47.9914 30.9589 51.3577 31.2885 54.417 32.5479C57.4762 33.8074 60.091 35.9403 61.9307 38.6768C63.7703 41.4134 64.7523 44.6307 64.7523 47.9219C64.7472 52.3337 62.9817 56.5634 59.843 59.6831C56.7043 62.8027 52.4488 64.5575 48.01 64.5625Z" fill="url(#paint0_linear)"/>
<path d="M4.48004 4.65625H6.71235V6.875H4.48004V4.65625Z" fill="#2262F0"/>
<path d="M8.94464 4.65625H11.1769V6.875H8.94464V4.65625Z" fill="#2262F0"/>
<path d="M13.4092 4.65625H15.6415V6.875H13.4092V4.65625Z" fill="#2262F0"/>
<path d="M49.1262 4.65625H51.3585V6.875H49.1262V4.65625Z" fill="#2262F0"/>
<path d="M42.7563 38.2625L33.827 47.1375C33.6178 47.3455 33.5002 47.6276 33.5002 47.9218C33.5002 48.2159 33.6178 48.4981 33.827 48.7061L42.7563 57.5811L44.3345 56.0125L36.1944 47.9218L44.3345 39.8311L42.7563 38.2625Z" fill="url(#paint1_linear)"/>
<path d="M62.1929 47.1375L53.2637 38.2625L51.6855 39.8311L59.8256 47.9218L51.6855 56.0125L53.2637 57.5811L62.1929 48.7061C62.4022 48.4981 62.5197 48.2159 62.5197 47.9218C62.5197 47.6276 62.4022 47.3455 62.1929 47.1375Z" fill="url(#paint2_linear)"/>
<path d="M46.8938 37.9375H49.1261V57.9062H46.8938V37.9375Z" fill="url(#paint3_linear)"/>
<defs>
<linearGradient id="paint0_linear" x1="33.4998" y1="0.21875" x2="33.4998" y2="66.7809" gradientUnits="userSpaceOnUse">
<stop stop-color="#2261EF"/>
<stop offset="1" stop-color="#017EFE"/>
</linearGradient>
<linearGradient id="paint1_linear" x1="38.9174" y1="38.2625" x2="38.9174" y2="57.5811" gradientUnits="userSpaceOnUse">
<stop stop-color="#2261EF"/>
<stop offset="1" stop-color="#017EFE"/>
</linearGradient>
<linearGradient id="paint2_linear" x1="57.1026" y1="38.2625" x2="57.1026" y2="57.5811" gradientUnits="userSpaceOnUse">
<stop stop-color="#2261EF"/>
<stop offset="1" stop-color="#017EFE"/>
</linearGradient>
<linearGradient id="paint3_linear" x1="48.01" y1="37.9375" x2="48.01" y2="57.9062" gradientUnits="userSpaceOnUse">
<stop stop-color="#2261EF"/>
<stop offset="1" stop-color="#017EFE"/>
</linearGradient>
</defs>
</svg>
