<svg width="77" height="73" viewBox="0 0 77 73" fill="none" xmlns="http://www.w3.org/2000/svg">
<g clip-path="url(#clip0)">
<path d="M68.5606 20.5839C68.545 19.2371 67.4334 18.1506 66.0556 18.1353C64.6778 18.1353 63.5505 19.2371 63.5505 20.5839V25.4659H68.5606V20.5839Z" fill="#BDD0FA"/>
<path d="M66.0556 72.0052L68.5606 62.2107H63.5505L66.0556 72.0052Z" fill="#BDD0FA"/>
<path d="M56.0354 10.7893H46.0152V15.6866H53.5303V67.108H13.4495V15.6866H20.9647V10.7893H10.9444C9.56667 10.7893 8.43939 11.8912 8.43939 13.2379V69.5566C8.43939 70.9034 9.56667 72.0052 10.9444 72.0052H56.0354C57.4132 72.0052 58.5404 70.9034 58.5404 69.5566V13.2379C58.5404 11.8912 57.4132 10.8046 56.0354 10.7893Z" fill="#BDD0FA"/>
<path d="M20.9646 37.7244V49.9676H33.4899H46.0151V37.7244V25.4812H33.4899H20.9646V37.7244Z" fill="#BDD0FA"/>
<path d="M56.0354 9.79455H46.9546L46.9232 9.6109C46.344 6.88679 43.8546 4.91258 41.0051 4.89727H39.4394L39.4081 4.71363C38.8288 1.98952 36.3551 0 33.4899 0C33.0828 0 32.6758 0.0459119 32.2843 0.122432C29.9045 0.596855 28.0571 2.40273 27.5717 4.72893L27.5404 4.91258H25.9747C23.1252 4.91258 20.6358 6.9021 20.0722 9.62621L20.0252 9.79455H10.9444C9.00301 9.79455 7.42169 11.3403 7.42169 13.2379V69.5566C7.42169 71.4696 9.00301 73 10.9444 73H56.0354C57.9768 73 59.5581 71.4543 59.5581 69.5566V13.2379C59.5581 11.3403 57.9768 9.79455 56.0354 9.79455ZM21.9823 10.7893C21.9823 8.64675 23.7672 6.88679 25.9747 6.88679H28.4798C29.0434 6.88679 29.4975 6.44298 29.4975 5.89203C29.4975 3.73417 31.2823 1.98952 33.4899 1.98952C35.6975 1.98952 37.4823 3.74948 37.4823 5.89203C37.4823 6.44298 37.9364 6.88679 38.5 6.88679H41.0051C43.2126 6.88679 44.9975 8.63145 44.9975 10.7893V17.1405H21.9823V10.7893ZM20.9646 19.13H46.0152C46.5788 19.13 47.0328 18.6862 47.0328 18.1352V16.6813H52.5126V66.1132H14.4672V16.6813H19.947V18.1352C19.947 18.6862 20.401 19.13 20.9646 19.13ZM57.5228 69.5566C57.5228 70.3524 56.8495 71.0105 56.0354 71.0105H10.9444C10.1303 71.0105 9.45705 70.3524 9.45705 69.5566V13.2379C9.45705 12.4421 10.1303 11.7841 10.9444 11.7841H19.947V14.6918H13.4495C12.8858 14.6918 12.4318 15.1356 12.4318 15.6866V67.108C12.4318 67.6589 12.8858 68.1027 13.4495 68.1027H53.5303C54.094 68.1027 54.548 67.6589 54.548 67.108V15.6866C54.548 15.1356 54.094 14.6918 53.5303 14.6918H47.0328V11.7841H56.0354C56.8495 11.7841 57.5228 12.4421 57.5228 13.2379V69.5566Z" fill="url(#paint0_linear)"/>
<path d="M34.5076 4.89722H32.4722V6.88673H34.5076V4.89722Z" fill="#2262F0"/>
<path d="M42.0227 9.79468H24.957V11.7842H42.0227V9.79468Z" fill="#2262F0"/>
<path d="M62.5328 62.2109C62.5328 62.2874 62.5485 62.3792 62.5642 62.4557L65.0692 72.2503C65.1788 72.6941 65.5859 73.0002 66.0556 73.0002C66.1339 73.0002 66.2278 72.9849 66.3061 72.9696C66.6662 72.8777 66.948 72.6023 67.0419 72.2503L69.547 62.4557C69.5626 62.3792 69.5783 62.3027 69.5783 62.2109V20.584C69.5783 18.6863 67.997 17.1406 66.0556 17.1406C64.1142 17.1406 62.5328 18.6863 62.5328 20.584V62.2109ZM66.0556 67.9192L64.85 63.2209H67.2455L66.0556 67.9192ZM64.5682 20.584C64.5682 19.7882 65.2414 19.1301 66.0556 19.1301C66.8697 19.1301 67.5429 19.7882 67.5429 20.584V24.4865H64.5682V20.584ZM64.5682 26.4761H67.5429V61.2161H64.5682V26.4761Z" fill="url(#paint1_linear)"/>
<path d="M47.0329 25.4811C47.0329 24.9301 46.5788 24.4863 46.0152 24.4863H20.9646C20.401 24.4863 19.947 24.9301 19.947 25.4811V49.9675C19.947 50.5184 20.401 50.9622 20.9646 50.9622H46.0152C46.5788 50.9622 47.0329 50.5184 47.0329 49.9675V25.4811ZM32.4722 48.9727H21.9823V38.719H32.4722V48.9727ZM32.4722 36.7295H21.9823V26.4758H32.4722V36.7295ZM44.9975 48.9727H34.5076V38.719H44.9975V48.9727ZM44.9975 36.7295H34.5076V26.4758H44.9975V36.7295Z" fill="url(#paint2_linear)"/>
<path d="M24.4874 53.8699H19.947V55.8594H24.4874V53.8699Z" fill="#027EFE"/>
<path d="M47.0328 53.8699H27.4621V55.8594H47.0328V53.8699Z" fill="#027EFE"/>
<path d="M24.4874 58.7673H19.947V60.7569H24.4874V58.7673Z" fill="#027EFE"/>
<path d="M47.0328 58.7673H27.4621V60.7569H47.0328V58.7673Z" fill="#027EFE"/>
</g>
<defs>
<linearGradient id="paint0_linear" x1="33.4899" y1="0" x2="33.4899" y2="73" gradientUnits="userSpaceOnUse">
<stop stop-color="#2261EF"/>
<stop offset="1" stop-color="#017EFE"/>
</linearGradient>
<linearGradient id="paint1_linear" x1="66.0556" y1="17.1406" x2="66.0556" y2="73.0002" gradientUnits="userSpaceOnUse">
<stop stop-color="#2261EF"/>
<stop offset="1" stop-color="#017EFE"/>
</linearGradient>
<linearGradient id="paint2_linear" x1="33.4899" y1="24.4863" x2="33.4899" y2="50.9622" gradientUnits="userSpaceOnUse">
<stop stop-color="#2261EF"/>
<stop offset="1" stop-color="#017EFE"/>
</linearGradient>
<clipPath id="clip0">
<rect width="77" height="73" fill="white"/>
</clipPath>
</defs>
</svg>
