<svg width="77" height="82" viewBox="0 0 77 82" fill="none" xmlns="http://www.w3.org/2000/svg">
<path d="M24.8531 1.11743V6.61848H43.9247L43.9588 6.65286V14.8701H52.147V45.1258H57.6057V23.1216H65.7939V58.8784H31.6766V64.3795H68.5233C70.0244 64.3795 71.2527 63.1418 71.2527 61.629V20.3711C71.2527 18.8583 70.0244 17.6206 68.5233 17.6206H57.6057V1.11743H24.8531Z" fill="#BDD0FA"/>
<path d="M24.8531 34.1237V45.1258H35.7706H46.6882V34.1237V23.1216H35.7706H24.8531V34.1237Z" fill="#BDD0FA"/>
<path d="M8.47676 64.3795H23.4884V58.8785H11.2061V23.1217H19.3943V17.6206H8.47676C6.9756 17.6206 5.74738 18.8583 5.74738 20.3711V61.629C5.74738 63.1418 6.9756 64.3795 8.47676 64.3795Z" fill="#BDD0FA"/>
<path d="M72.3614 20.3711C72.3614 18.2394 70.6385 16.5031 68.5232 16.5031H58.7145V1.1174C58.7145 0.498533 58.2198 0 57.6057 0H24.8531C24.239 0 23.7443 0.498533 23.7443 1.1174V5.50105H19.3943C18.7802 5.50105 18.2855 5.99958 18.2855 6.61845V16.5031H8.47675C6.36147 16.5031 4.63855 18.2394 4.63855 20.3711V61.6289C4.63855 63.7606 6.36147 65.4969 8.47675 65.4969H22.3796V74.0063C22.3796 74.1438 22.4137 74.2813 22.4649 74.4189L25.1942 81.2952C25.3648 81.7249 25.7742 82 26.2178 82H45.3235C45.784 82 46.1764 81.7249 46.347 81.2952L49.0764 74.4017C49.1275 74.2641 49.1617 74.1266 49.1617 73.9891V65.4969H68.5232C70.6385 65.4969 72.3614 63.7606 72.3614 61.6289V20.3711ZM58.7145 45.1258V24.239H64.685V57.761H32.7853V54.7526C32.7853 53.8243 32.5295 52.9304 32.0689 52.1396L31.8471 51.7442H52.164C52.7781 51.7442 53.2728 51.2457 53.2728 50.6268V46.2432H57.6228C58.2198 46.2432 58.7145 45.7447 58.7145 45.1258ZM25.9619 2.2348H56.4969V44.0084H53.2557V14.8356C53.2557 14.5434 53.1363 14.2512 52.9146 14.0449L44.6923 5.81048C44.4876 5.60419 44.2146 5.48386 43.9246 5.48386H25.9619V2.2348ZM49.4858 13.7526H45.0676V9.33459L49.4858 13.7526ZM20.5031 7.73585H42.85V14.87C42.85 15.4889 43.3447 15.9874 43.9588 15.9874H51.0381V49.5094H20.5031V7.73585ZM22.3796 63.2621H8.47675C7.5897 63.2621 6.85618 62.5229 6.85618 61.6289V20.3711C6.85618 19.4771 7.5897 18.7379 8.47675 18.7379H18.2855V22.0042H11.2061C10.592 22.0042 10.0973 22.5027 10.0973 23.1216V58.8784C10.0973 59.4973 10.592 59.9958 11.2061 59.9958H22.3796V63.2621ZM23.096 52.1396C22.6354 52.9304 22.3796 53.8415 22.3796 54.7526V57.761H12.3149V24.239H18.2855V50.6268C18.2855 51.2457 18.7802 51.7442 19.3943 51.7442H23.3348L23.096 52.1396ZM46.944 73.7828L44.5729 79.7652H26.9683L24.5972 73.8V54.7526C24.5972 53.1023 25.9448 51.7442 27.5824 51.7442C29.2201 51.7442 30.5677 53.1023 30.5677 54.7526V69.8805C30.5677 70.4994 31.0624 70.9979 31.6765 70.9979C33.9965 70.9979 35.89 72.8201 36.0265 75.1237H38.2441C38.1247 72.0981 35.9583 69.5023 32.99 68.9006L32.7853 68.8662V65.4969H46.944V73.7828ZM70.1438 61.6289C70.1438 62.5229 69.4103 63.2621 68.5232 63.2621H32.7853V59.9958H65.7938C66.408 59.9958 66.9027 59.4973 66.9027 58.8784V23.1216C66.9027 22.5027 66.408 22.0042 65.7938 22.0042H58.7145V18.7379H68.5232C69.4103 18.7379 70.1438 19.4771 70.1438 20.3711V61.6289Z" fill="url(#paint0_linear)"/>
<path d="M47.797 23.1216C47.797 22.5027 47.3023 22.0042 46.6882 22.0042H24.8531C24.239 22.0042 23.7443 22.5027 23.7443 23.1216V45.1257C23.7443 45.7446 24.239 46.2431 24.8531 46.2431H46.6882C47.3023 46.2431 47.797 45.7446 47.797 45.1257V23.1216ZM34.6618 44.0083H25.9619V35.241H34.6618V44.0083ZM34.6618 33.0062H25.9619V24.239H34.6618V33.0062ZM45.5794 44.0083H36.8794V35.241H45.5794V44.0083ZM45.5794 33.0062H36.8794V24.239H45.5794V33.0062Z" fill="url(#paint1_linear)"/>
<path d="M28.6913 11.0022H23.7443V13.237H28.6913V11.0022Z" fill="#2064F1"/>
<path d="M39.6088 11.0022H31.9324V13.237H39.6088V11.0022Z" fill="#2064F1"/>
<path d="M39.6088 16.5032H23.7443V18.738H39.6088V16.5032Z" fill="#2064F1"/>
<defs>
<linearGradient id="paint0_linear" x1="38.5" y1="0" x2="38.5" y2="82" gradientUnits="userSpaceOnUse">
<stop stop-color="#2261EF"/>
<stop offset="1" stop-color="#017EFE"/>
</linearGradient>
<linearGradient id="paint1_linear" x1="35.7706" y1="22.0042" x2="35.7706" y2="46.2431" gradientUnits="userSpaceOnUse">
<stop stop-color="#2261EF"/>
<stop offset="1" stop-color="#017EFE"/>
</linearGradient>
</defs>
</svg>
