<svg width="77" height="73" viewBox="0 0 77 73" fill="none" xmlns="http://www.w3.org/2000/svg">
<path d="M71.6584 1.01953H5.3416C3.98232 1.01953 2.8949 2.11859 2.87891 3.47251V10.8155H74.1051V3.47251C74.1051 2.11859 73.0177 1.03546 71.6584 1.01953Z" fill="#BDD0FA"/>
<path d="M66.749 42.6244V32.8444C66.749 30.1365 64.5422 27.9543 61.8396 27.9543H56.9302C54.2117 27.9543 52.0208 30.1525 52.0208 32.8444V42.6244C52.0208 45.3323 54.2276 47.5145 56.9302 47.5145H61.8396C64.5422 47.5145 66.749 45.3163 66.749 42.6244Z" fill="#BDD0FA"/>
<path d="M28.6732 67.0907H48.3268L45.8641 54.8577H31.1199L28.6732 67.0907Z" fill="#BDD0FA"/>
<path d="M39.7233 18.1584H12.6977C11.3384 18.1584 10.251 19.2575 10.235 20.6114V25.4855H42.17V20.5955C42.186 19.2416 41.0826 18.1584 39.7233 18.1584Z" fill="#BDD0FA"/>
<path d="M67.7725 42.6245V32.8445C67.7725 29.5791 65.1019 26.935 61.8237 26.9191H60.4004V25.4855C60.4004 23.5741 58.8332 22.0131 56.9143 22.0131H49.5422C47.6232 22.0131 46.056 23.5741 46.056 25.4855V30.3756C46.056 31.1561 45.4164 31.7932 44.6328 31.7932H43.2095V20.5796C43.2095 18.6682 41.6424 17.1072 39.7234 17.1072H12.6977C10.7787 17.1072 9.21155 18.6682 9.21155 20.5796V45.0456C9.21155 46.9571 10.7787 48.518 12.6977 48.518H39.7234C41.6424 48.518 43.2095 46.9571 43.2095 45.0456V33.832H44.6328C46.5518 33.832 48.1189 32.271 48.1189 30.3596V25.4855C48.1189 24.705 48.7586 24.0679 49.5422 24.0679H56.9143C57.6978 24.0679 58.3375 24.705 58.3375 25.4855V26.9032H56.9143C53.636 26.9032 50.9814 29.5632 50.9654 32.8285V42.6086C50.9654 45.8739 53.636 48.518 56.9143 48.534H61.8237C65.1019 48.534 67.7725 45.8739 67.7725 42.6245ZM41.1626 45.0616C41.1626 45.8421 40.523 46.4792 39.7394 46.4792H12.7137C11.9301 46.4792 11.2904 45.8421 11.2904 45.0616V26.5209H41.1626V45.0616ZM41.1626 24.4661H11.2745V20.5955C11.2745 19.815 11.9141 19.1779 12.6977 19.1779H39.7234C40.507 19.1779 41.1466 19.815 41.1466 20.5955V24.4661H41.1626ZM53.0443 32.8285C53.0443 30.6941 54.7874 28.9579 56.9303 28.9579H58.3535V34.2462H53.0443V32.8285ZM65.7256 42.6245C65.7256 44.7589 63.9825 46.4951 61.8397 46.4951H56.9303C54.7874 46.4951 53.0443 44.7589 53.0443 42.6245V36.3009H65.7256V42.6245ZM65.7256 34.2462H60.4164V28.9579H61.8397C63.9825 28.9579 65.7256 30.6941 65.7256 32.8285V34.2462Z" fill="url(#paint0_linear)"/>
<path d="M71.6584 55.8769C73.5774 55.8769 75.1446 54.3159 75.1446 52.4045V3.4724C75.1446 1.56099 73.5774 0 71.6584 0H5.34156C3.42258 0 1.85541 1.56099 1.85541 3.4724V52.4045C1.85541 54.3159 3.42258 55.8769 5.34156 55.8769H29.8726L27.8256 66.0552H26.2105C24.2915 66.0552 22.7243 67.6162 22.7243 69.5276V71.9806C22.7243 72.5381 23.1881 73 23.7478 73H53.2202C53.7799 73 54.2436 72.5381 54.2436 71.9806V69.5276C54.2436 67.6162 52.6765 66.0552 50.7575 66.0552H49.1423L47.0954 55.8769H71.6584ZM3.91831 3.4724C3.91831 2.6919 4.55798 2.05477 5.34156 2.05477H71.6584C72.442 2.05477 73.0817 2.6919 73.0817 3.4724V9.79599H3.91831V3.4724ZM5.34156 53.8222C4.55798 53.8222 3.91831 53.185 3.91831 52.4045V11.8348H73.0976V52.4045C73.0976 53.185 72.458 53.8222 71.6744 53.8222H5.34156ZM47.0634 66.0552H29.9365L31.9834 55.8769H45.0325L47.0634 66.0552ZM50.7895 68.11C51.5731 68.11 52.2127 68.7471 52.2127 69.5276V70.9452H24.7873V69.5276C24.7873 68.7471 25.4269 68.11 26.2105 68.11H50.7895Z" fill="url(#paint1_linear)"/>
<path d="M8.82768 4.89014H6.76477V6.9449H8.82768V4.89014Z" fill="#2262F0"/>
<path d="M13.7372 4.89014H11.6743V6.9449H13.7372V4.89014Z" fill="#2262F0"/>
<path d="M18.6625 4.89014H16.5996V6.9449H18.6625V4.89014Z" fill="#2262F0"/>
<path d="M70.2352 4.89014H68.1723V6.9449H70.2352V4.89014Z" fill="#2262F0"/>
<defs>
<linearGradient id="paint0_linear" x1="38.492" y1="17.1072" x2="38.492" y2="48.534" gradientUnits="userSpaceOnUse">
<stop stop-color="#2261EF"/>
<stop offset="1" stop-color="#017EFE"/>
</linearGradient>
<linearGradient id="paint1_linear" x1="38.5" y1="0" x2="38.5" y2="73" gradientUnits="userSpaceOnUse">
<stop stop-color="#2261EF"/>
<stop offset="1" stop-color="#017EFE"/>
</linearGradient>
</defs>
</svg>
