<svg width="78" height="78" viewBox="0 0 78 78" fill="none" xmlns="http://www.w3.org/2000/svg">
<g clip-path="url(#clip0)">
<path d="M52.0817 66.4717V69.088C52.0817 70.527 50.9044 71.7044 49.4654 71.7044H28.5346C27.0956 71.7044 25.9182 70.527 25.9182 69.088V66.4717H1.06287V71.7044C1.06287 74.5987 3.40123 76.9371 6.29557 76.9371H71.7044C74.5987 76.9371 76.9371 74.5987 76.9371 71.7044V66.4717H52.0817Z" fill="#BDD0FA"/>
<path d="M70.2163 13.3271L74.3535 9.19003L68.8101 3.64664L64.6729 7.78374C63.9862 7.42399 63.283 7.12965 62.5472 6.90072V1.06299H54.6981V6.90072C53.9623 7.12965 53.2591 7.44035 52.5723 7.78374L48.4352 3.64664L42.8918 9.19003L47.0289 13.3271C46.6692 14.0139 46.3748 14.7171 46.1459 15.4529H40.3082V23.302H46.1459C46.3748 24.0378 46.6855 24.741 47.0289 25.4278L42.8918 29.5649L48.4352 35.1083L52.5723 30.9712C53.2591 31.3309 53.9623 31.6253 54.6981 31.8542V37.6919H62.5472V31.8542C63.283 31.6253 63.9862 31.3146 64.6729 30.9712L68.8101 35.1083L71.7208 32.1976L74.3698 29.5485L70.2327 25.4114C70.5924 24.7246 70.8868 24.0215 71.1157 23.2856H76.9535V15.4366H71.1157C70.8704 14.7171 70.5761 14.0139 70.2163 13.3271ZM58.6226 27.2265C54.2893 27.2265 50.7736 23.7108 50.7736 19.3775C50.7736 15.0441 54.2893 11.5284 58.6226 11.5284C62.956 11.5284 66.4717 15.0441 66.4717 19.3775C66.4717 23.7108 62.956 27.2265 58.6226 27.2265Z" fill="#BDD0FA"/>
<path d="M7.78362 48.9749L3.64651 53.112L6.29557 55.7611L9.20626 58.6717L13.3434 54.5346C14.0302 54.8944 14.7333 55.1887 15.4692 55.4177V61.2554H23.3182V55.4177C24.0541 55.1887 24.7572 54.878 25.444 54.5346L29.5811 58.6717L35.1245 53.1284L30.9874 48.9912C31.3471 48.3045 31.6415 47.6013 31.8704 46.8655H37.7081V39.0164H31.8704C31.6415 38.2806 31.3308 37.5774 30.9874 36.8906L35.1245 32.7535L29.5811 27.2101L25.444 31.3472C24.7572 30.9875 24.0541 30.6931 23.3182 30.4642V24.6265H15.4692V30.4642C14.7333 30.6931 14.0302 31.0038 13.3434 31.3472L9.20626 27.2101L6.29557 30.1208L3.64651 32.7699L7.78362 36.907C7.42387 37.5938 7.12953 38.2969 6.9006 39.0328H1.06287V46.8818H6.9006C7.12953 47.585 7.42387 48.2881 7.78362 48.9749ZM19.3773 35.0755C23.7107 35.0755 27.2264 38.5912 27.2264 42.9246C27.2264 47.2579 23.7107 50.7736 19.3773 50.7736C15.044 50.7736 11.5283 47.2579 11.5283 42.9246C11.5283 38.5912 15.044 35.0755 19.3773 35.0755Z" fill="#BDD0FA"/>
<path d="M78 71.7044V66.4717C78 65.883 77.5258 65.4088 76.9371 65.4088H72.7673V32.639L75.1056 30.3006C75.5144 29.8918 75.5144 29.205 75.1056 28.7962L71.5082 25.1987L71.5736 25.0516C71.639 24.8881 71.7207 24.7082 71.8025 24.5119L71.8679 24.3648H76.9534C77.5421 24.3648 78.0163 23.8906 78.0163 23.3019V15.4528C78.0163 14.8642 77.5421 14.3899 76.9534 14.3899H71.8679L71.8025 14.2428C71.7207 14.0465 71.6553 13.8667 71.5736 13.7031L71.5082 13.556L75.1056 9.95849C75.5144 9.54969 75.5144 8.86289 75.1056 8.45409L69.5622 2.91069C69.366 2.71447 69.088 2.6 68.81 2.6C68.5321 2.6 68.2541 2.71447 68.0578 2.91069L64.4604 6.50818L64.3132 6.44277C64.1497 6.37736 63.9698 6.2956 63.7736 6.21384L63.6264 6.14843V1.06289C63.6264 0.474214 63.1522 0 62.5635 0H54.7145C54.1258 0 53.6516 0.474214 53.6516 1.06289V6.14843L53.5044 6.21384C53.3082 6.2956 53.1283 6.36101 52.9648 6.44277L52.8176 6.50818L49.2201 2.91069C49.0239 2.71447 48.7459 2.6 48.4679 2.6C48.1899 2.6 47.9119 2.71447 47.7157 2.91069L42.1723 8.45409C41.7635 8.86289 41.7635 9.54969 42.1723 9.95849L45.7698 13.556L45.7044 13.7031C45.639 13.8667 45.5572 14.0465 45.4755 14.2428L45.4101 14.3899H40.3245C39.7358 14.3899 39.2616 14.8642 39.2616 15.4528V18.3145H8.91195C6.88428 18.3145 5.2327 19.966 5.2327 21.9937V29.6629L2.89434 32.0013C2.48553 32.4101 2.48553 33.0969 2.89434 33.5057L6.49182 37.1031L6.42641 37.2503C6.361 37.4138 6.27924 37.5774 6.19748 37.7899L6.13207 37.9371H1.06289C0.474214 37.9371 0 38.4113 0 39V46.8491C0 47.4377 0.474214 47.912 1.06289 47.912H6.14843L6.21384 48.0591C6.2956 48.2553 6.36101 48.4352 6.44277 48.5987L6.50817 48.7459L2.91069 52.3434C2.50189 52.7522 2.50189 53.439 2.91069 53.8478L5.2327 56.1862V65.4088H1.06289C0.474214 65.4088 0 65.883 0 66.4717V71.7044C0 75.1711 2.82893 78 6.2956 78H71.7044C75.1711 78 78 75.1711 78 71.7044ZM41.3711 16.5157H46.1459C46.6201 16.5157 47.0126 16.2214 47.1597 15.7799C47.3723 15.1094 47.6503 14.4553 47.9773 13.834C48.1899 13.4252 48.1245 12.9182 47.7811 12.5912L44.3962 9.20629L48.4352 5.1673L51.8201 8.5522C52.0163 8.74843 52.2943 8.86289 52.5723 8.86289C52.7358 8.86289 52.9157 8.81384 53.0629 8.74843C53.6843 8.42138 54.3384 8.1434 55.0088 7.93082C55.4503 7.78365 55.761 7.3912 55.761 6.91698V2.12579H61.4843V6.90063C61.4843 7.37484 61.7786 7.7673 62.2365 7.91447C62.9069 8.12704 63.561 8.40503 64.1824 8.73208C64.3295 8.81384 64.5094 8.84654 64.6729 8.84654C64.9509 8.84654 65.2289 8.73208 65.4251 8.53585L68.81 5.15094L72.849 9.18994L69.4641 12.5748C69.1371 12.9019 69.0553 13.4088 69.2679 13.8176C69.595 14.439 69.8729 15.0931 70.0855 15.7635C70.2327 16.205 70.6251 16.5157 71.0993 16.5157H75.8742V22.239H71.0993C70.6251 22.239 70.2327 22.5333 70.0855 22.9748C69.8729 23.6453 69.595 24.2994 69.2679 24.9208C69.0553 25.3296 69.1371 25.8365 69.4641 26.1635L72.849 29.5484L68.81 33.5874L65.4251 30.2025C65.2289 30.0063 64.9509 29.8918 64.6729 29.8918C64.5094 29.8918 64.3295 29.9409 64.1824 30.0063C63.561 30.3333 62.9069 30.6113 62.2365 30.8239C61.795 30.9711 61.4843 31.3635 61.4843 31.8377V36.6289H55.761V31.8541C55.761 31.3799 55.4667 30.9874 55.0251 30.8403C54.3547 30.6277 53.7006 30.3497 53.0792 30.0226C52.9321 29.9409 52.7522 29.9082 52.5887 29.9082C52.3107 29.9082 52.0327 30.0226 51.8365 30.2189L48.4516 33.6038L44.4126 29.5648L47.7975 26.1799C48.1245 25.8528 48.2063 25.3459 47.9937 24.9371C47.6667 24.3157 47.3887 23.6616 47.1761 22.9912C47.0289 22.5497 46.6365 22.239 46.1623 22.239H41.3711V16.5157ZM7.35849 21.9937C7.35849 21.1434 8.06163 20.4403 8.91195 20.4403H39.2453V23.3019C39.2453 23.8906 39.7195 24.3648 40.3082 24.3648H45.3937L45.4591 24.5119C45.5409 24.7082 45.6063 24.8881 45.688 25.0516L45.7534 25.1987L42.156 28.7962C41.7472 29.205 41.7472 29.8918 42.156 30.3006L47.6994 35.844C47.8956 36.0403 48.1736 36.1547 48.4516 36.1547C48.7295 36.1547 49.0075 36.0403 49.2038 35.844L52.8012 32.2465L52.9484 32.312C53.1119 32.3774 53.2918 32.4591 53.488 32.5409L53.6352 32.6063V37.6918C53.6352 38.2805 54.1094 38.7547 54.6981 38.7547H62.5472C63.1358 38.7547 63.6101 38.2805 63.6101 37.6918V32.6063L63.7572 32.5409C63.9534 32.4591 64.1333 32.3937 64.2968 32.312L64.444 32.2465L68.0415 35.844C68.2377 36.0403 68.5157 36.1547 68.7937 36.1547C69.0717 36.1547 69.3497 36.0403 69.5459 35.844L70.6415 34.7484V65.4088H52.0817C51.4931 65.4088 51.0189 65.883 51.0189 66.4717V69.0881C51.0189 69.9384 50.3157 70.6415 49.4654 70.6415H28.5346C27.6843 70.6415 26.9811 69.9384 26.9811 69.0881V66.4717C26.9811 65.883 26.5069 65.4088 25.9182 65.4088H7.35849V58.312L8.45409 59.4075C8.65031 59.6038 8.9283 59.7182 9.20629 59.7182C9.48427 59.7182 9.76226 59.6038 9.95849 59.4075L13.556 55.8101L13.7031 55.8755C13.8667 55.9409 14.0465 56.0226 14.2428 56.1044L14.3899 56.1698V61.2553C14.3899 61.844 14.8641 62.3182 15.4528 62.3182H23.3019C23.8906 62.3182 24.3648 61.844 24.3648 61.2553V56.1698L24.5119 56.1044C24.7082 56.0226 24.888 55.9572 25.0516 55.8755L25.1987 55.8101L28.7962 59.4075C28.9924 59.6038 29.2704 59.7182 29.5484 59.7182C29.8264 59.7182 30.1044 59.6038 30.3006 59.4075L35.844 53.8642C36.2528 53.4553 36.2528 52.7686 35.844 52.3598L32.2465 48.7623L32.3119 48.6151C32.3774 48.4516 32.4591 48.2717 32.5409 48.0755L32.6063 47.9283H37.6918C38.2805 47.9283 38.7547 47.4541 38.7547 46.8654V39.0164C38.7547 38.4277 38.2805 37.9535 37.6918 37.9535H32.6063L32.5409 37.8063C32.4591 37.6101 32.3937 37.4302 32.3119 37.2667L32.2465 37.1195L35.844 33.522C36.2528 33.1132 36.2528 32.4264 35.844 32.0176L30.3006 26.4742C30.1044 26.278 29.8264 26.1635 29.5484 26.1635C29.2704 26.1635 28.9924 26.278 28.7962 26.4742L25.1987 30.0717L25.0516 30.0063C24.888 29.9409 24.7082 29.8591 24.5119 29.7774L24.3648 29.712V24.6264C24.3648 24.0377 23.8906 23.5635 23.3019 23.5635H15.4528C14.8641 23.5635 14.3899 24.0377 14.3899 24.6264V29.712L14.2428 29.7774C14.0465 29.8591 13.8667 29.9245 13.7031 30.0063L13.556 30.0717L9.95849 26.4742C9.76226 26.278 9.48427 26.1635 9.20629 26.1635C8.9283 26.1635 8.65031 26.278 8.45409 26.4742L7.35849 27.5698V21.9937ZM5.15094 53.0956L8.53585 49.7107C8.86289 49.3837 8.94465 48.8767 8.73207 48.4679C8.40503 47.8465 8.12704 47.1925 7.91446 46.522C7.76729 46.0805 7.37484 45.7698 6.90063 45.7698H2.12579V40.0465H6.90063C7.37484 40.0465 7.76729 39.7522 7.91446 39.3107C8.12704 38.6403 8.40503 37.9862 8.73207 37.3648C8.94465 36.956 8.87924 36.4491 8.53585 36.122L5.15094 32.7371L9.18993 28.6981L12.5748 32.083C12.7711 32.2792 13.0491 32.3937 13.327 32.3937C13.4906 32.3937 13.6704 32.3447 13.8176 32.2792C14.439 31.9522 15.0931 31.6742 15.7635 31.4616C16.205 31.3145 16.5157 30.922 16.5157 30.4478V25.673H22.239V30.4478C22.239 30.922 22.5333 31.3145 22.9912 31.4616C23.6616 31.6742 24.3157 31.9522 24.9371 32.2792C25.0843 32.361 25.2641 32.3937 25.4277 32.3937C25.7057 32.3937 25.9836 32.2792 26.1799 32.083L29.5648 28.6981L33.6038 32.7371L30.2189 36.122C29.8918 36.4491 29.8101 36.956 30.0226 37.3648C30.3497 37.9862 30.6277 38.6403 30.8402 39.3107C30.9874 39.7522 31.3799 40.0629 31.8541 40.0629H36.6289V45.7862H31.8541C31.3799 45.7862 30.9874 46.0805 30.8402 46.5384C30.6277 47.2088 30.3497 47.8629 30.0226 48.4843C29.8101 48.8931 29.8755 49.4 30.2189 49.727L33.6038 53.1119L29.5648 57.1509L26.1799 53.766C25.9836 53.5698 25.7057 53.4553 25.4277 53.4553C25.2641 53.4553 25.0843 53.5044 24.9371 53.5698C24.3157 53.8969 23.6616 54.1748 22.9912 54.3874C22.5497 54.5346 22.239 54.927 22.239 55.4013V60.1761H16.5157V55.4013C16.5157 54.927 16.2214 54.5346 15.7799 54.3874C15.1094 54.1748 14.4553 53.8969 13.834 53.5698C13.6868 53.4881 13.5069 53.4553 13.3434 53.4553C13.0654 53.4553 12.7874 53.5698 12.5912 53.766L9.20629 57.1509L5.15094 53.0956ZM75.8742 71.7044C75.8742 74.0101 74.01 75.8742 71.7044 75.8742H6.2956C3.98994 75.8742 2.12579 74.0101 2.12579 71.7044V67.5346H24.8553V69.0881C24.8553 71.1157 26.5069 72.7673 28.5346 72.7673H49.4654C51.4931 72.7673 53.1446 71.1157 53.1446 69.0881V67.5346H75.8742V71.7044Z" fill="url(#paint0_linear)"/>
<path d="M58.6226 10.4653C53.717 10.4653 49.7107 14.4553 49.7107 19.3773C49.7107 24.2993 53.7006 28.2892 58.6226 28.2892C63.5447 28.2892 67.5346 24.2993 67.5346 19.3773C67.5346 14.4716 63.5283 10.4653 58.6226 10.4653ZM58.6226 26.1634C54.878 26.1634 51.8365 23.1219 51.8365 19.3773C51.8365 15.6326 54.878 12.5911 58.6226 12.5911C62.3673 12.5911 65.4088 15.6326 65.4088 19.3773C65.4088 23.1219 62.3673 26.1634 58.6226 26.1634Z" fill="#1B69F3"/>
<path d="M19.3773 34.0127C14.4553 34.0127 10.4654 38.0026 10.4654 42.9246C10.4654 47.8303 14.4717 51.8366 19.3773 51.8366C24.283 51.8366 28.2893 47.8467 28.2893 42.9246C28.2893 38.0026 24.2994 34.0127 19.3773 34.0127ZM19.3773 49.7108C15.6327 49.7108 12.5912 46.6693 12.5912 42.9246C12.5912 39.18 15.6327 36.1385 19.3773 36.1385C23.122 36.1385 26.1635 39.18 26.1635 42.9246C26.1635 46.6693 23.122 49.7108 19.3773 49.7108Z" fill="url(#paint1_linear)"/>
<path d="M49.2201 43.1699H44.478V45.2957H49.2201V43.1699Z" fill="#1072F8"/>
<path d="M64.9182 43.1699H52.327V45.2957H64.9182V43.1699Z" fill="#1072F8"/>
<path d="M49.2201 51.0188H44.478V53.1446H49.2201V51.0188Z" fill="#0D75FA"/>
<path d="M64.9182 51.0188H52.327V53.1446H64.9182V51.0188Z" fill="#0D75FA"/>
<path d="M49.2201 58.8679H44.478V60.9937H49.2201V58.8679Z" fill="#0978FB"/>
<path d="M64.9182 58.8679H52.327V60.9937H64.9182V58.8679Z" fill="#0978FB"/>
</g>
<defs>
<linearGradient id="paint0_linear" x1="39.0082" y1="0" x2="39.0082" y2="78" gradientUnits="userSpaceOnUse">
<stop stop-color="#2261EF"/>
<stop offset="1" stop-color="#017EFE"/>
</linearGradient>
<linearGradient id="paint1_linear" x1="19.3773" y1="34.0127" x2="19.3773" y2="51.8366" gradientUnits="userSpaceOnUse">
<stop stop-color="#2261EF"/>
<stop offset="1" stop-color="#017EFE"/>
</linearGradient>
<clipPath id="clip0">
<rect width="78" height="78" fill="white"/>
</clipPath>
</defs>
</svg>
