<svg version="1" xmlns="http://www.w3.org/2000/svg" width="933.333" height="933.333" viewBox="0 0 700.000000 700.000000"><path d="M32.6 87.8c-1.6.3-1.6 8.5-1.3 131.5.1 72.2.5 132.1.9 133.2.3 1.1.9 4.1 1.2 6.7.9 6.6 5.1 20.7 8.8 29.7 13 31.2 38.1 58.2 68.5 73.5 10.3 5.2 29.9 11.7 41.3 13.8 10.9 1.9 37.3 1.6 49-.6 11-2 30.6-8.1 31.7-9.8.3-.7.7-18.6.7-39.8l.1-38.6-7.4 6.2c-14 11.7-29.1 17.4-47.6 18-19.4.5-32-3-47-13-11.5-7.7-20.8-18.6-27-31.9-7.1-15.1-6.9-11.8-7.5-87.7-.3-37.7-.5-96.1-.5-129.8 0-40.1-.3-61.2-1-61.3-3.3-.3-61.4-.3-62.9-.1z"/><path d="M159.5 189.6c-14.9 2.3-33 7.1-39.7 10.5-1.6.9-1.8 4-1.8 40.1v39.1l2.2-1.9c1.2-1 2.9-2.5 3.7-3.2 5.5-5.1 17-11.9 25.6-15 17.2-6.3 38.4-5.8 56.3 1.4 19.9 8 37.4 26.1 44.3 46.3 5 14.1 4.8 9.2 4.9 161.5 0 78.5.2 143.1.4 143.5.6.9 63.5.6 64.4-.3.4-.4.7-33 .8-72.5.1-73.1.3-80.5 3.1-90 7.8-27.3 28.2-44.1 53.3-44.1 25 0 43.4 15.7 51.3 43.8 2.1 7.5 2.2 9.3 2.5 85.2.1 42.6.5 77.6.7 77.9.6.6 64.5.7 64.6.1 0-.3.2-34.7.4-76.5.1-41.8.5-77.1.8-78.4 4.3-16.8 9.5-26.9 18.8-36.1 15.9-15.7 40.9-19.6 61-9.5 13.6 7 23.7 25.3 25.8 46.9.3 3.9.6 40.1.6 80.3 0 48.2.3 73.3 1 73.4 1.4.1 59.4.1 62.3 0l2.3-.1-.4-81.8c-.2-44.9-.7-83.5-1.1-85.7-4.1-22.4-6.6-31.3-12.7-44.3-13-28-37.1-46.3-69.1-52.8-13.2-2.6-43.5-2.7-55.5-.1-15.1 3.2-27.9 9.5-40.2 19.7-5.9 5-15.8 16.3-20.2 22.9l-1.5 2.4-4.2-7.6c-10.4-18.9-25.6-31.1-46.6-37.1-16.3-4.8-31.8-5.1-50.5-1.2-5.6 1.2-13.1 4.1-20.5 7.9-8.7 4.5-20.9 15.6-23.9 21.7-.9 1.9-1.7 3-1.8 2.5-.1-.6-.2-13.2-.3-28-.3-27.7-.8-35.2-3.3-46.5-.7-3.6-1.6-7.5-1.9-8.7-.2-1.3-1.6-5.5-3-9.5-14.5-40.4-44.7-71.6-84-87.1-8.2-3.2-21.8-7-29.7-8.3-4.4-.7-35.5-1.3-39.2-.8z"/></svg>