<svg width="309" height="427" viewBox="0 0 309 427" fill="none" xmlns="http://www.w3.org/2000/svg">
<g clip-path="url(#clip0)">
<g filter="url(#filter0_d)">
<path d="M149.748 58.2655H149.998V58.0155V24.1472V23.8972H149.748H147.596H147.346V24.1472V55.8839H126.063V24.1472V23.8972H125.813H123.661H123.411V24.1472V58.0155V58.2655H123.661H149.748Z" fill="#2261EF" stroke="#2261EF" stroke-width="0.5"/>
<path d="M205.704 392.934V393.184H205.954H207.586H207.836H208.105V392.934V392.684H208.086V367.38H209.181C259.877 367.38 301.405 326.143 301.405 275.202V270.095C301.405 244.831 290.681 220.643 272.444 203.138C284.222 187.541 290.379 169.009 290.379 149.675V144.836C290.379 98.2819 254.362 59.5178 208.086 56.1698V24.1472V23.8972H207.836H205.685H205.435V24.1472V58.5531V58.8031H205.685H206.753C252.336 61.4869 287.996 99.2763 287.996 144.836V149.675C287.996 168.971 281.561 187.195 269.761 202.475L269.756 202.481L269.751 202.489L269.213 203.295L269.074 203.503L269.283 203.642L270.073 204.169C288.569 221.055 299.022 244.905 299.022 269.826V274.933C299.022 324.522 258.795 364.73 209.181 364.73H205.954H205.704V364.98V392.934Z" fill="#2261EF" stroke="#2261EF" stroke-width="0.5"/>
<path d="M149.748 393.185H149.998V392.935V364.98V364.73H149.748H123.661H123.411V364.98V392.935V393.185H123.661H125.813H126.063V392.935V367.111H147.346V392.935V393.185H147.596H149.748Z" fill="#2261EF" stroke="#2261EF" stroke-width="0.5"/>
<path d="M67.1862 393.185H67.4362V392.935V364.98V364.73H67.1862H23.6196H23.3696V364.98V366.861V367.111H23.6196H65.0537V392.935V393.185H65.3037H67.1862Z" fill="#2261EF" stroke="#2261EF" stroke-width="0.5"/>
<path d="M53.7397 308.783H53.9897V308.533V114.462V114.212H53.7397H23.6196H23.3696V114.462V116.613V116.863H23.6196H51.3383V306.132H23.6196H23.3696V306.382V308.533V308.783H23.6196H53.7397Z" fill="#2261EF" stroke="#2261EF" stroke-width="0.5"/>
<path d="M67.1862 58.2655H67.4362V58.0155V24.1472V23.8972H67.1862H65.3037H65.0537V24.1472V55.8839H23.6196H23.3696V56.1339V58.0155V58.2655H23.6196H67.1862Z" fill="#2261EF" stroke="#2261EF" stroke-width="0.5"/>
<path d="M109.696 179.78V180.03H109.946H201.92C218.732 180.03 232.291 166.478 232.021 149.404V144.568C232.021 127.764 218.463 114.212 201.651 114.212H109.946H109.696V114.462V179.78ZM201.92 177.648H112.347V116.863H201.92C217.38 116.863 229.907 129.384 229.907 144.836V149.675C229.907 165.127 217.38 177.648 201.92 177.648Z" fill="#2261EF" stroke="#2261EF" stroke-width="0.5"/>
<path d="M109.696 308.533V308.783H109.946H209.45C228.143 308.783 243.317 293.619 243.047 274.932V269.826C243.047 251.141 227.875 235.977 209.181 235.977H109.946H109.696V236.227V308.533ZM209.45 306.132H112.347V238.627H209.45C226.525 238.627 240.665 252.494 240.665 269.826V274.933C240.665 291.999 226.791 306.132 209.45 306.132Z" fill="#2261EF" stroke="#2261EF" stroke-width="0.5"/>
<path d="M8.30956 56.9403C8.30956 61.6429 12.1816 65.7917 17.1653 65.7917C21.87 65.7917 26.021 61.9218 26.021 56.9403C26.021 51.9638 22.144 48.0888 17.1653 48.0888C12.1816 48.0888 8.30956 52.2377 8.30956 56.9403ZM10.961 56.9403C10.961 53.5841 13.8072 50.7392 17.1653 50.7392C20.5234 50.7392 23.3696 53.5841 23.3696 56.9403C23.3696 60.2964 20.5234 63.1414 17.1653 63.1414C13.8072 63.1414 10.961 60.2964 10.961 56.9403Z" fill="#2261EF" stroke="#2261EF" stroke-width="0.5"/>
<path d="M26.0206 115.552L26.021 115.545V115.538C26.021 110.561 22.144 106.686 17.1653 106.686C12.1816 106.686 8.30956 110.835 8.30956 115.538C8.30956 120.24 12.1816 124.389 17.1653 124.389C21.8874 124.389 25.745 120.235 26.0206 115.552ZM10.961 115.538C10.961 112.182 13.8072 109.337 17.1653 109.337C20.5234 109.337 23.3696 112.182 23.3696 115.538C23.3696 118.894 20.5234 121.739 17.1653 121.739C13.8072 121.739 10.961 118.894 10.961 115.538Z" fill="#2261EF" stroke="#2261EF" stroke-width="0.5"/>
<path d="M26.0207 307.203L26.021 307.203V307.189C26.021 302.212 22.144 298.337 17.1653 298.337C12.1816 298.337 8.30956 302.486 8.30956 307.189C8.30956 312.17 12.4606 316.04 17.1653 316.04C21.8822 316.04 25.7451 312.161 26.0207 307.203ZM10.961 307.458C10.961 304.101 13.8072 301.256 17.1653 301.256C20.5303 301.256 23.3696 303.839 23.3696 307.458C23.3696 310.814 20.5234 313.659 17.1653 313.659C13.8072 313.659 10.961 310.814 10.961 307.458Z" fill="#2261EF" stroke="#2261EF" stroke-width="0.5"/>
<path d="M8.30956 365.786C8.30956 370.768 12.4606 374.638 17.1653 374.638C21.87 374.638 26.021 370.768 26.021 365.786C26.021 360.81 22.144 356.935 17.1653 356.935C12.1866 356.935 8.30956 360.81 8.30956 365.786ZM10.961 365.786C10.961 362.43 13.8072 359.585 17.1653 359.585C20.5234 359.585 23.3696 362.43 23.3696 365.786C23.3696 369.142 20.5234 371.987 17.1653 371.987C13.8072 371.987 10.961 369.142 10.961 365.786Z" fill="#2261EF" stroke="#2261EF" stroke-width="0.5"/>
<path d="M57.75 16.8898C57.75 21.8713 61.9011 25.7412 66.6057 25.7412C71.2997 25.7412 75.4615 22.1503 75.4615 17.1586C75.4615 12.177 71.3104 8.30711 66.6057 8.30711C61.6377 8.30711 57.75 11.9029 57.75 16.8898ZM60.4014 17.1586C60.4014 13.8024 63.2476 10.9575 66.6057 10.9575C69.9639 10.9575 72.81 13.8024 72.81 17.1586C72.81 20.5147 69.9639 23.3597 66.6057 23.3597C63.2476 23.3597 60.4014 20.5147 60.4014 17.1586Z" fill="#2261EF" stroke="#2261EF" stroke-width="0.5"/>
<path d="M116.15 16.8898C116.15 21.8713 120.301 25.7412 125.006 25.7412C129.7 25.7412 133.862 22.1503 133.862 17.1586C133.862 12.177 129.711 8.30711 125.006 8.30711C120.038 8.30711 116.15 11.9029 116.15 16.8898ZM118.802 17.1586C118.802 13.8024 121.648 10.9575 125.006 10.9575C128.364 10.9575 131.21 13.8024 131.21 17.1586C131.21 20.5147 128.364 23.3597 125.006 23.3597C121.648 23.3597 118.802 20.5147 118.802 17.1586Z" fill="#2261EF" stroke="#2261EF" stroke-width="0.5"/>
<path d="M139.816 16.8898C139.816 21.8713 143.967 25.7412 148.672 25.7412C153.64 25.7412 157.528 22.1454 157.528 17.1586C157.528 12.177 153.376 8.30711 148.672 8.30711C143.978 8.30711 139.816 11.898 139.816 16.8898ZM142.468 17.1586C142.468 13.8024 145.314 10.9575 148.672 10.9575C152.292 10.9575 154.876 13.7955 154.876 17.1586C154.876 20.5147 152.03 23.3597 148.672 23.3597C145.314 23.3597 142.468 20.5147 142.468 17.1586Z" fill="#2261EF" stroke="#2261EF" stroke-width="0.5"/>
<path d="M198.443 16.8898C198.443 21.8713 202.594 25.7412 207.298 25.7412C212.003 25.7412 215.885 22.1403 215.885 17.1586C215.885 12.1873 212.013 8.30711 207.298 8.30711C202.33 8.30711 198.443 11.9029 198.443 16.8898ZM201.094 17.1586C201.094 13.8024 203.94 10.9575 207.298 10.9575C210.657 10.9575 213.503 13.8024 213.503 17.1586C213.503 20.5147 210.657 23.3597 207.298 23.3597C203.94 23.3597 201.094 20.5147 201.094 17.1586Z" fill="#2261EF" stroke="#2261EF" stroke-width="0.5"/>
<path d="M75.5037 400.862L75.5041 400.862V400.848C75.5041 395.866 71.353 391.997 66.6483 391.997C61.6646 391.997 57.7926 396.145 57.7926 400.848C57.7926 405.83 61.9437 409.699 66.6483 409.699C71.3653 409.699 75.2281 405.82 75.5037 400.862ZM60.444 400.848C60.444 397.492 63.2902 394.647 66.6483 394.647C70.0065 394.647 72.8527 397.492 72.8527 400.848C72.8527 404.204 70.0065 407.049 66.6483 407.049C63.2902 407.049 60.444 404.204 60.444 400.848Z" fill="#2261EF" stroke="#2261EF" stroke-width="0.5"/>
<path d="M133.861 400.862L133.862 400.862V400.848C133.862 395.866 129.711 391.997 125.006 391.997C120.022 391.997 116.15 396.145 116.15 400.848C116.15 405.83 120.301 409.699 125.006 409.699C129.723 409.699 133.586 405.82 133.861 400.862ZM118.802 400.848C118.802 397.492 121.648 394.647 125.006 394.647C128.364 394.647 131.21 397.492 131.21 400.848C131.21 404.204 128.364 407.049 125.006 407.049C121.648 407.049 118.802 404.204 118.802 400.848Z" fill="#2261EF" stroke="#2261EF" stroke-width="0.5"/>
<path d="M139.816 400.848C139.816 405.83 143.967 409.699 148.672 409.699C153.651 409.699 157.528 405.824 157.528 400.848C157.528 395.866 153.376 391.997 148.672 391.997C143.688 391.997 139.816 396.145 139.816 400.848ZM142.468 400.848C142.468 397.492 145.314 394.647 148.672 394.647C152.292 394.647 154.876 397.485 154.876 400.848C154.876 404.204 152.03 407.049 148.672 407.049C145.314 407.049 142.468 404.204 142.468 400.848Z" fill="#2261EF" stroke="#2261EF" stroke-width="0.5"/>
<path d="M216.154 400.862L216.154 400.862V400.848C216.154 395.866 212.003 391.997 207.298 391.997C202.315 391.997 198.443 396.145 198.443 400.848C198.443 405.83 202.594 409.699 207.298 409.699C212.015 409.699 215.878 405.82 216.154 400.862ZM201.094 400.848C201.094 397.492 203.94 394.647 207.298 394.647C210.657 394.647 213.503 397.492 213.503 400.848C213.503 404.204 210.657 407.049 207.298 407.049C203.94 407.049 201.094 404.204 201.094 400.848Z" fill="#2261EF" stroke="#2261EF" stroke-width="0.5"/>
</g>
</g>
<defs>
<filter id="filter0_d" x="8.05956" y="8.05711" width="313.595" height="421.892" filterUnits="userSpaceOnUse" color-interpolation-filters="sRGB">
<feFlood flood-opacity="0" result="BackgroundImageFix"/>
<feColorMatrix in="SourceAlpha" type="matrix" values="0 0 0 0 0 0 0 0 0 0 0 0 0 0 0 0 0 0 127 0"/>
<feOffset dx="10" dy="10"/>
<feGaussianBlur stdDeviation="5"/>
<feColorMatrix type="matrix" values="0 0 0 0 0.133333 0 0 0 0 0.380392 0 0 0 0 0.937255 0 0 0 0.7 0"/>
<feBlend mode="normal" in2="BackgroundImageFix" result="effect1_dropShadow"/>
<feBlend mode="normal" in="SourceGraphic" in2="effect1_dropShadow" result="shape"/>
</filter>
<clipPath id="clip0">
<rect width="309" height="427" fill="white"/>
</clipPath>
</defs>
</svg>
