<svg width="173" height="162" viewBox="0 0 173 162" fill="none" xmlns="http://www.w3.org/2000/svg">
<path opacity="0.16" d="M90.5352 161.072C135.777 161.072 172.453 153.502 172.453 144.163C172.453 134.825 135.777 127.254 90.5352 127.254C45.2931 127.254 8.61707 134.825 8.61707 144.163C8.61707 153.502 45.2931 161.072 90.5352 161.072Z" fill="#272727"/>
<path d="M111.356 116.323C76.5409 139.723 39.1657 145.188 28.0726 128.621C27.0486 127.084 19.1982 116.153 18.6862 114.445C13.3956 96.8526 39.1657 77.3818 70.909 56.0322C103.164 34.341 132.86 15.7241 146.513 28.1923C149.073 30.5835 154.022 41.0021 154.875 42.1976C165.968 58.9357 146.171 92.9243 111.356 116.323Z" fill="url(#paint0_linear)"/>
<path opacity="0.47" d="M136.102 64.7428C133.201 60.3021 130.47 53.9826 126.716 50.3959C126.545 50.2251 125.521 49.3711 125.009 49.3711C121.767 49.3711 120.06 54.1534 119.548 57.2278C118.353 63.718 121.255 70.8915 123.814 76.8694C126.886 84.2136 130.641 91.3871 133.03 98.7314C138.833 92.9243 143.953 86.9464 147.878 80.9685C143.099 75.6738 139.345 69.6959 136.102 64.7428Z" fill="url(#paint1_linear)"/>
<path opacity="0.47" d="M39.1657 111.029C45.1389 116.494 50.2588 122.472 56.0613 128.108C58.9626 131.012 62.0345 133.916 65.6184 136.136C65.7891 136.307 65.9598 136.307 66.3011 136.477C66.6424 136.477 66.8131 136.307 67.1544 136.307C66.8131 134.257 66.8131 131.183 66.4718 129.475C65.4478 125.205 64.2531 121.106 63.2292 116.836C61.3519 108.979 59.3039 100.269 61.6932 92.2411C63.7411 85.2384 69.885 79.9437 77.3942 79.9437C84.3913 79.9437 89.8526 84.8968 93.7778 90.0207C98.8977 96.511 102.482 104.026 106.578 111.2C107.772 113.078 108.796 115.299 110.161 117.177C110.673 116.836 111.015 116.665 111.527 116.323C114.599 114.274 117.5 112.224 120.231 110.004C119.719 106.93 118.865 104.197 118.353 102.66C116.476 96.8526 113.404 91.3871 111.015 85.7508C105.895 74.1366 101.458 61.3269 106.066 48.8587C109.479 39.6357 118.012 30.7542 128.593 33.6578C135.42 35.5365 139.174 40.8312 142.758 46.4675C146.854 52.787 150.95 59.6189 155.558 65.7676C158.971 56.5445 158.971 48.1755 154.875 42.0268C154.022 40.8312 149.073 30.2418 146.513 28.0215C132.86 15.5533 103.164 34.1702 70.909 55.8613C47.1869 71.9163 26.7073 86.7756 20.2221 100.61C27.0486 101.976 33.5338 105.905 39.1657 111.029Z" fill="url(#paint2_linear)"/>
<path opacity="0.47" d="M41.2137 134.94C35.7524 129.304 30.4619 122.643 23.9767 118.373C22.4407 117.348 20.9048 116.665 19.5395 116.153C21.7581 119.91 27.2193 127.254 28.0726 128.45C31.3152 133.403 36.9471 136.307 43.9443 137.502C42.9203 136.648 42.067 135.794 41.2137 134.94Z" fill="url(#paint3_linear)"/>
<path opacity="0.47" d="M89.5112 112.737C86.7806 107.954 83.026 98.219 77.7355 95.8278C76.5408 95.1447 77.3941 94.9739 76.7115 95.8278C76.1995 96.511 76.0288 97.0234 75.8582 97.7066C75.0049 101.293 76.0288 105.734 76.8822 109.15C78.0768 115.128 81.49 123.497 82.514 131.524C87.1219 129.646 91.9005 127.596 96.679 125.034C93.9484 120.764 91.5592 116.153 89.5112 112.737Z" fill="url(#paint4_linear)"/>
<path d="M20.2985 115.062C31.5091 131.731 68.8049 126.242 103.601 102.802C138.397 79.3627 157.517 46.8489 146.306 30.1806C135.096 13.5123 97.8001 19.0015 63.004 42.4409C28.2079 65.8804 9.08796 98.3942 20.2985 115.062Z" fill="#FFF09D"/>
<path d="M123.132 30.4127C107.943 30.4127 87.634 37.9277 68.861 50.5667C35.0698 73.2827 22.7821 100.098 28.9259 109.15C31.9979 113.761 40.7017 115.469 52.3067 113.761C66.4718 111.541 82.6847 104.709 98.2151 94.2906C132.006 71.5747 144.294 44.7596 138.15 35.7073C135.078 31.0958 127.398 30.4127 123.132 30.4127Z" fill="#E7B548"/>
<path opacity="0.5" d="M74.6636 68.3295C75.6876 69.5251 97.5324 75.6738 99.239 74.3074C100.946 72.941 111.868 51.7622 109.308 51.5914C106.748 51.2498 73.6396 66.7924 74.6636 68.3295Z" fill="#E7B548"/>
<path d="M70.909 65.2552C71.421 65.7676 86.2686 62.5224 87.9753 62.864C89.3406 63.2056 94.6311 71.9163 95.4844 71.0623C97.1911 69.6959 108.113 48.5171 105.554 48.3463C102.823 48.1755 69.7144 63.8888 70.909 65.2552Z" fill="#FFF09D"/>
<path opacity="0.5" d="M69.885 73.4534C68.5197 74.649 59.1333 99.4146 60.4986 100.952C61.8639 102.489 95.1431 83.0181 95.6551 81.3101C96.1671 79.6021 71.2503 72.2578 69.885 73.4534Z" fill="#E7B548"/>
<path d="M65.9598 70.5499C64.5945 71.7455 55.208 96.511 56.5733 98.0482C57.9386 99.5853 91.2179 80.1145 91.7299 78.4065C92.0712 77.5525 75.6876 78.9189 73.469 78.4065C71.421 77.8941 66.4718 69.8667 65.9598 70.5499Z" fill="#FFF09D"/>
<path opacity="0.3" d="M39.507 60.3021C35.0698 64.9136 31.1445 69.5251 27.9019 73.9658C68.6904 64.572 109.479 55.349 150.267 45.9551C150.779 42.5392 150.779 39.2941 150.267 36.3905C113.404 44.7596 76.5409 52.787 39.507 60.3021Z" fill="#FFF7C9"/>
<path opacity="0.3" d="M17.3209 94.6322C15.1022 102.83 15.4436 110.004 19.3688 115.64C23.9767 122.472 32.6805 125.717 43.7736 125.717C60.6692 125.717 83.0261 118.031 104.359 103.684C121.084 92.4119 134.396 78.9189 142.246 65.9384C100.604 75.503 58.9626 84.8968 17.3209 94.6322Z" fill="#FFF7C9"/>
<path d="M43.603 125.717C32.5099 125.717 23.8061 122.472 19.1982 115.64C7.5931 98.3898 26.878 65.2552 62.2052 41.3436C97.5324 17.6029 135.59 12.3082 147.025 29.3879C158.63 46.6383 139.345 79.7729 104.018 103.684C82.8554 118.031 60.4986 125.717 43.603 125.717ZM122.961 21.5312C106.578 21.5312 84.7327 29.0463 63.5705 43.2224C29.2673 66.28 10.3237 98.219 21.2461 114.274C32.1685 130.329 68.6904 124.692 102.994 101.635C137.297 78.5773 156.24 46.6383 145.318 30.5834C141.222 24.4347 133.201 21.5312 122.961 21.5312Z" fill="#E7B548"/>
<path opacity="0.4" d="M43.603 125.717C32.5099 125.717 23.8061 122.472 19.1982 115.64C7.5931 98.3898 26.878 65.2552 62.2052 41.3436C97.5324 17.6029 135.59 12.3082 147.025 29.3879C158.63 46.6383 139.345 79.7729 104.018 103.684C82.8554 118.031 60.4986 125.717 43.603 125.717ZM122.961 21.5312C106.578 21.5312 84.7327 29.0463 63.5705 43.2224C29.2673 66.28 10.3237 98.219 21.2461 114.274C32.1685 130.329 68.6904 124.692 102.994 101.635C137.297 78.5773 156.24 46.6383 145.318 30.5834C141.222 24.4347 133.201 21.5312 122.961 21.5312Z" fill="#E7B548"/>
<path d="M69.7143 67.988C69.7143 68.8419 73.1276 76.1862 74.1515 76.1862C75.1755 76.1862 92.9245 74.8198 92.9245 73.9658C92.9245 73.2826 86.7806 65.0844 86.2686 64.7428C85.586 64.2304 69.7143 66.7924 69.7143 67.988Z" fill="#FFF09D"/>
<path opacity="0.69" d="M89.3406 63.3764C89.1699 63.5472 88.9992 63.718 88.8286 63.8888C90.8765 66.1092 94.6311 71.9163 95.3138 71.2331C96.8497 70.0375 105.895 52.787 105.724 49.2003C100.092 53.641 94.6311 58.2525 89.3406 63.3764Z" fill="#FFF09D"/>
<path opacity="0.69" d="M75.3462 78.5773C69.885 85.0676 64.4238 91.5579 58.6212 97.7066C66.1304 94.803 91.2179 79.9437 91.7299 78.4065C91.9005 77.5525 80.2954 78.5773 75.3462 78.5773Z" fill="#FFF09D"/>
<path opacity="0.69" d="M77.5648 76.0154C83.0261 75.6738 92.9245 74.649 92.9245 73.9658C92.9245 73.4534 88.8286 67.8171 87.122 65.5968C83.8794 69.0127 80.6368 72.4286 77.5648 76.0154Z" fill="#FFF09D"/>
<defs>
<linearGradient id="paint0_linear" x1="35.0971" y1="130.16" x2="150.849" y2="37.5422" gradientUnits="userSpaceOnUse">
<stop stop-color="#FFF09D"/>
<stop offset="0.2056" stop-color="#E7B548"/>
<stop offset="0.4132" stop-color="#FFF09D"/>
<stop offset="0.6211" stop-color="#E7B548"/>
<stop offset="0.8111" stop-color="#FFF09D"/>
<stop offset="1" stop-color="#E7B548"/>
</linearGradient>
<linearGradient id="paint1_linear" x1="34.8278" y1="140.63" x2="159.089" y2="52.331" gradientUnits="userSpaceOnUse">
<stop stop-color="#FFF09D"/>
<stop offset="0.2056" stop-color="#E7B548"/>
<stop offset="0.4132" stop-color="#FFF09D"/>
<stop offset="0.6211" stop-color="#E7B548"/>
<stop offset="0.8111" stop-color="#FFF09D"/>
<stop offset="1" stop-color="#E7B548"/>
</linearGradient>
<linearGradient id="paint2_linear" x1="27.9456" y1="130.944" x2="152.206" y2="42.6456" gradientUnits="userSpaceOnUse">
<stop stop-color="#FFF09D"/>
<stop offset="0.2056" stop-color="#E7B548"/>
<stop offset="0.4132" stop-color="#FFF09D"/>
<stop offset="0.6211" stop-color="#E7B548"/>
<stop offset="0.8111" stop-color="#FFF09D"/>
<stop offset="1" stop-color="#E7B548"/>
</linearGradient>
<linearGradient id="paint3_linear" x1="27.3324" y1="130.081" x2="151.593" y2="41.7824" gradientUnits="userSpaceOnUse">
<stop stop-color="#FFF09D"/>
<stop offset="0.2056" stop-color="#E7B548"/>
<stop offset="0.4132" stop-color="#FFF09D"/>
<stop offset="0.6211" stop-color="#E7B548"/>
<stop offset="0.8111" stop-color="#FFF09D"/>
<stop offset="1" stop-color="#E7B548"/>
</linearGradient>
<linearGradient id="paint4_linear" x1="37.9169" y1="144.977" x2="162.178" y2="56.6781" gradientUnits="userSpaceOnUse">
<stop stop-color="#FFF09D"/>
<stop offset="0.2056" stop-color="#E7B548"/>
<stop offset="0.4132" stop-color="#FFF09D"/>
<stop offset="0.6211" stop-color="#E7B548"/>
<stop offset="0.8111" stop-color="#FFF09D"/>
<stop offset="1" stop-color="#E7B548"/>
</linearGradient>
</defs>
</svg>
