<svg width="111" height="189" viewBox="0 0 111 189" fill="none" xmlns="http://www.w3.org/2000/svg">
<path opacity="0.17" d="M55.4654 188.768C86.0982 188.768 110.931 181.657 110.931 172.884C110.931 164.112 86.0982 157 55.4654 157C24.8327 157 0 164.112 0 172.884C0 181.657 24.8327 188.768 55.4654 188.768Z" fill="#272727"/>
<path d="M68.7771 87.8275C68.7771 127.623 75.6037 168.444 63.6573 175.275C62.8039 175.788 49.8336 175.105 47.7856 175.105C35.6685 175.105 24.9168 135.48 24.9168 87.8275C24.9168 40.1752 34.6446 0.379548 46.7616 0.379548C48.8096 0.379548 62.9746 -0.474436 64.1692 0.379548C75.433 8.5778 68.7771 48.0319 68.7771 87.8275Z" fill="url(#paint0_linear)"/>
<path opacity="0.37" d="M53.4175 141.799C53.4175 141.629 53.5882 141.458 53.5882 141.287C53.2468 141.116 52.9055 140.945 52.5642 140.775C50.3456 139.921 47.7856 139.75 45.3963 139.579C41.1298 139.237 37.0339 139.067 32.7673 139.408C31.7433 139.75 30.7193 139.921 29.6953 139.921C30.89 145.728 32.2553 151.022 33.7913 155.634C35.6685 154.267 37.5458 152.901 39.4231 151.535C42.6657 149.314 46.079 147.606 49.3216 145.386C50.6869 144.361 52.3935 143.336 53.4175 141.799Z" fill="url(#paint1_linear)"/>
<path opacity="0.37" d="M62.8039 51.4478C51.1989 56.2301 38.0578 58.7921 25.9408 62.7204C25.7701 64.0868 25.7701 65.4531 25.5994 66.8195C33.9619 65.2823 42.3244 63.4036 50.8575 63.5744C57.8547 63.7452 64.6812 65.7947 69.1185 70.577C69.4598 62.3788 69.8011 54.3513 70.1424 46.8363C67.9238 48.7151 65.5345 50.2522 62.8039 51.4478Z" fill="url(#paint2_linear)"/>
<path opacity="0.37" d="M43.1777 41.7124C46.9323 40.5168 64.8519 36.7593 63.6573 31.6354C63.1453 29.0734 51.1989 26.5115 48.8096 25.9991C44.2017 24.9743 39.5938 24.4619 34.9859 24.1203C33.9619 24.1203 32.938 24.1203 31.914 23.9495C30.2074 30.4398 28.6714 38.1256 27.4767 46.4947C32.7673 44.7867 38.0578 43.2495 43.1777 41.7124Z" fill="url(#paint3_linear)"/>
<path opacity="0.37" d="M70.3131 17.9716C69.6305 9.43178 67.9238 3.1123 64.1693 0.379548C62.9746 -0.474436 48.6389 0.379548 46.7616 0.379548C43.519 0.379548 40.4471 3.28309 37.5458 8.57779C49.6629 9.09018 61.4386 11.4813 70.3131 17.9716Z" fill="url(#paint4_linear)"/>
<path opacity="0.37" d="M56.6601 80.1417C51.1989 75.7009 35.4979 80.654 29.5247 81.8496C27.9887 82.1912 26.4527 82.362 24.9168 82.7036C24.9168 84.4116 24.9168 86.1195 24.9168 87.8275C24.9168 92.6098 25.0874 97.3921 25.2581 102.004C30.5487 99.9541 35.8392 97.7337 40.9591 95.3426C44.7137 93.4638 63.1453 85.2656 56.6601 80.1417Z" fill="url(#paint5_linear)"/>
<path opacity="0.37" d="M55.4655 105.078C46.2497 110.202 36.5219 114.301 26.6234 117.888H26.4528C26.6234 120.45 26.9647 122.841 27.3061 125.232C31.402 124.549 35.3272 124.036 38.9111 124.036C49.3216 124.207 72.5317 125.744 69.9718 141.287C67.5825 155.634 51.3695 161.099 41.4711 169.298C41.1298 169.639 40.7884 169.81 40.4471 170.152C42.8364 173.397 45.2257 175.105 47.7856 175.105C49.8336 175.105 62.804 175.617 63.6573 175.275C74.921 168.956 69.4598 132.235 68.7772 94.6594C65.1932 98.9293 60.0734 102.345 55.4655 105.078Z" fill="url(#paint6_linear)"/>
<path d="M63.1453 174.08C75.2098 174.08 84.9901 135.463 84.9901 87.8275C84.9901 40.1916 75.2098 1.57513 63.1453 1.57513C51.0807 1.57513 41.3004 40.1916 41.3004 87.8275C41.3004 135.463 51.0807 174.08 63.1453 174.08Z" fill="#FFF09D"/>
<path d="M62.9746 13.7017C53.9295 13.7017 48.4683 45.1283 48.4683 87.9983C48.4683 130.698 56.3188 162.295 62.9746 162.295C70.4838 162.295 77.481 130.868 77.481 87.9983C77.481 45.1283 71.6784 13.7017 62.9746 13.7017Z" fill="#E7B548"/>
<path opacity="0.33" d="M70.4838 105.42C70.1425 105.078 60.5853 114.301 60.5853 113.789C60.5853 113.618 60.5853 104.566 60.5853 93.9762C62.804 91.9266 64.5106 90.2187 65.0226 89.8771C66.2172 88.6815 65.3639 83.7284 64.1693 85.0948C63.6573 85.6072 62.4626 86.8027 60.756 88.3399C60.756 73.993 60.756 58.6213 60.756 57.9381C60.756 56.5717 55.4655 59.3045 55.4655 61.1832C55.4655 62.3788 55.4655 77.9213 55.4655 93.293C53.5882 95.001 52.0522 96.5382 51.7109 96.8797C51.0282 97.5629 51.3695 102.858 52.3935 101.833C52.7348 101.491 53.9295 100.466 55.4655 98.9293C55.4655 112.251 55.4655 124.036 55.4655 124.72C55.4655 126.257 69.6305 112.593 70.4838 111.739C70.6544 111.397 70.8251 105.761 70.4838 105.42Z" fill="#E7B548"/>
<path d="M73.3851 101.833C73.0437 101.491 63.4866 110.714 63.4866 110.202C63.4866 110.031 63.4866 100.979 63.4866 90.3895C65.7052 88.3399 67.4119 86.6319 67.9238 86.2903C69.1185 85.0948 68.2652 80.1417 67.0705 81.508C66.5585 82.0204 65.3639 83.216 63.6573 84.7532C63.6573 70.4062 63.6573 55.0345 63.6573 54.3513C63.6573 52.985 58.3667 55.7177 58.3667 57.5965C58.3667 58.7921 58.3667 74.3346 58.3667 89.7063C56.4894 91.4142 54.9535 92.9514 54.6121 93.293C53.9295 93.9762 54.2708 99.2709 55.2948 98.2461C55.6361 97.9045 56.8308 96.8797 58.3667 95.3426C58.3667 108.665 58.3667 120.45 58.3667 121.133C58.3667 122.67 72.5317 109.006 73.3851 108.152C73.5557 107.811 73.7264 102.345 73.3851 101.833Z" fill="#FFF09D"/>
<path opacity="0.3" d="M39.9351 88.8523C39.9351 97.9045 40.4471 106.957 41.1298 115.667C55.9774 101.15 70.8251 86.6319 85.8434 72.285C85.3314 63.4036 84.6488 54.5221 83.4542 46.3239C68.2652 59.8168 53.7588 73.8222 39.9351 88.8523Z" fill="#FFF7C9"/>
<path opacity="0.3" d="M44.3723 140.091C48.2976 160.587 54.7828 175.275 62.9746 175.275C76.1157 175.275 84.4781 138.554 86.0141 99.6125C72.1904 113.105 58.196 126.598 44.3723 140.091Z" fill="#FFF7C9"/>
<path d="M63.1453 175.275C48.6389 175.275 39.9351 130.698 39.9351 87.6567C39.9351 44.6159 48.6389 0.0379486 63.1453 0.0379486C77.6516 0.0379486 86.3554 44.6159 86.3554 87.6567C86.1848 130.868 77.6516 175.275 63.1453 175.275ZM63.1453 2.7707C53.2468 2.7707 42.4951 36.9301 42.4951 87.8275C42.4951 138.725 53.0762 172.884 63.1453 172.884C73.0437 172.884 83.7955 138.725 83.7955 87.8275C83.6248 36.9301 73.0437 2.7707 63.1453 2.7707Z" fill="#E7B548"/>
<path opacity="0.4" d="M63.1453 175.275C48.6389 175.275 39.9351 130.698 39.9351 87.6567C39.9351 44.6159 48.6389 0.0379486 63.1453 0.0379486C77.6516 0.0379486 86.3554 44.6159 86.3554 87.6567C86.1848 130.868 77.6516 175.275 63.1453 175.275ZM63.1453 2.7707C53.2468 2.7707 42.4951 36.9301 42.4951 87.8275C42.4951 138.725 53.0762 172.884 63.1453 172.884C73.0437 172.884 83.7955 138.725 83.7955 87.8275C83.6248 36.9301 73.0437 2.7707 63.1453 2.7707Z" fill="#E7B548"/>
<defs>
<linearGradient id="paint0_linear" x1="50.1711" y1="8.83604" x2="46.5202" y2="173.91" gradientUnits="userSpaceOnUse">
<stop stop-color="#FFF09D"/>
<stop offset="0.2056" stop-color="#E7B548"/>
<stop offset="0.4132" stop-color="#FFF09D"/>
<stop offset="0.6211" stop-color="#E7B548"/>
<stop offset="0.8111" stop-color="#FFF09D"/>
<stop offset="1" stop-color="#E7B548"/>
</linearGradient>
<linearGradient id="paint1_linear" x1="44.5879" y1="8.71267" x2="40.937" y2="173.787" gradientUnits="userSpaceOnUse">
<stop stop-color="#FFF09D"/>
<stop offset="0.2056" stop-color="#E7B548"/>
<stop offset="0.4132" stop-color="#FFF09D"/>
<stop offset="0.6211" stop-color="#E7B548"/>
<stop offset="0.8111" stop-color="#FFF09D"/>
<stop offset="1" stop-color="#E7B548"/>
</linearGradient>
<linearGradient id="paint2_linear" x1="48.9256" y1="8.80837" x2="45.2747" y2="173.882" gradientUnits="userSpaceOnUse">
<stop stop-color="#FFF09D"/>
<stop offset="0.2056" stop-color="#E7B548"/>
<stop offset="0.4132" stop-color="#FFF09D"/>
<stop offset="0.6211" stop-color="#E7B548"/>
<stop offset="0.8111" stop-color="#FFF09D"/>
<stop offset="1" stop-color="#E7B548"/>
</linearGradient>
<linearGradient id="paint3_linear" x1="46.3437" y1="8.7515" x2="42.6928" y2="173.825" gradientUnits="userSpaceOnUse">
<stop stop-color="#FFF09D"/>
<stop offset="0.2056" stop-color="#E7B548"/>
<stop offset="0.4132" stop-color="#FFF09D"/>
<stop offset="0.6211" stop-color="#E7B548"/>
<stop offset="0.8111" stop-color="#FFF09D"/>
<stop offset="1" stop-color="#E7B548"/>
</linearGradient>
<linearGradient id="paint4_linear" x1="54.1201" y1="8.92349" x2="50.4692" y2="173.997" gradientUnits="userSpaceOnUse">
<stop stop-color="#FFF09D"/>
<stop offset="0.2056" stop-color="#E7B548"/>
<stop offset="0.4132" stop-color="#FFF09D"/>
<stop offset="0.6211" stop-color="#E7B548"/>
<stop offset="0.8111" stop-color="#FFF09D"/>
<stop offset="1" stop-color="#E7B548"/>
</linearGradient>
<linearGradient id="paint5_linear" x1="43.1507" y1="8.68094" x2="39.4998" y2="173.754" gradientUnits="userSpaceOnUse">
<stop stop-color="#FFF09D"/>
<stop offset="0.2056" stop-color="#E7B548"/>
<stop offset="0.4132" stop-color="#FFF09D"/>
<stop offset="0.6211" stop-color="#E7B548"/>
<stop offset="0.8111" stop-color="#FFF09D"/>
<stop offset="1" stop-color="#E7B548"/>
</linearGradient>
<linearGradient id="paint6_linear" x1="51.2887" y1="8.86047" x2="47.6377" y2="173.934" gradientUnits="userSpaceOnUse">
<stop stop-color="#FFF09D"/>
<stop offset="0.2056" stop-color="#E7B548"/>
<stop offset="0.4132" stop-color="#FFF09D"/>
<stop offset="0.6211" stop-color="#E7B548"/>
<stop offset="0.8111" stop-color="#FFF09D"/>
<stop offset="1" stop-color="#E7B548"/>
</linearGradient>
</defs>
</svg>
