<svg width="80" height="458" viewBox="0 0 80 458" fill="none" xmlns="http://www.w3.org/2000/svg">
<g opacity="0.25">
<path opacity="0.5" d="M-5.60721 457.035L-6.63644 456.501L66.7312 347.37L-16.7746 242.807L59.8801 165.875L-3.26014 5.02474L-1.95621 4.61287L61.6916 166.162L-14.7022 243.012L68.3782 347.136L68.1997 347.479L-5.60721 457.035Z" fill="#2261EF"/>
<path d="M62.0613 170.057C64.2218 169.374 65.4205 167.071 64.7387 164.913C64.057 162.755 61.753 161.558 59.5926 162.241C57.4322 162.923 56.2334 165.226 56.9152 167.384C57.5969 169.543 59.9009 170.739 62.0613 170.057Z" fill="#2261EF"/>
<path d="M68.7479 351.031C70.9083 350.349 72.107 348.046 71.4253 345.887C70.7435 343.729 68.4395 342.533 66.2791 343.215C64.1187 343.898 62.92 346.2 63.6017 348.359C64.2834 350.517 66.5874 351.713 68.7479 351.031Z" fill="#2261EF"/>
</g>
</svg>
