<svg width="680" height="321" viewBox="0 0 680 321" fill="none" xmlns="http://www.w3.org/2000/svg">
<g opacity="0.25">
<path opacity="0.5" d="M482.611 300.887L482.078 300.587L283.22 132.319L110.234 170.727L109.987 170.168L0.122559 -74L1.55146 -73.5437L110.859 169.116L283.572 130.695L283.832 130.981L482.703 298.976L828.665 5.73194L829.84 6.28933L482.611 300.887Z" fill="#2261EF"/>
<path d="M110.348 174.015C112.611 174.124 114.535 172.38 114.644 170.119C114.753 167.859 113.007 165.937 110.744 165.828C108.481 165.718 106.558 167.462 106.449 169.723C106.34 171.984 108.086 173.905 110.348 174.015Z" fill="#2261EF"/>
<path d="M482.453 304.161C484.716 304.271 486.639 302.527 486.748 300.266C486.857 298.005 485.112 296.084 482.849 295.974C480.586 295.865 478.663 297.609 478.553 299.87C478.444 302.13 480.19 304.052 482.453 304.161Z" fill="#2261EF"/>
<path d="M283.061 135.594C285.324 135.704 287.248 133.96 287.357 131.699C287.466 129.438 285.72 127.517 283.457 127.407C281.194 127.298 279.271 129.042 279.162 131.303C279.053 133.563 280.798 135.485 283.061 135.594Z" fill="#2261EF"/>
</g>
</svg>
