<svg width="750" height="220" viewBox="0 0 750 220" fill="none" xmlns="http://www.w3.org/2000/svg">
<g clip-path="url(#clip0)">
<g opacity="0.25">
<path opacity="0.5" d="M151.839 208.853L152.438 208.73L393.058 108.927L546.163 198.135L546.568 197.677L725.5 -1.5L724 -1.49994L546.057 196.41L393.216 107.272L392.882 107.466L152.332 207.005L-88.0328 -177.581L-89.3212 -177.408L151.839 208.853Z" fill="#2261EF"/>
<path d="M545.054 201.232C542.865 200.648 541.563 198.401 542.147 196.215C542.73 194.028 544.978 192.728 547.167 193.313C549.356 193.897 550.658 196.143 550.074 198.33C549.491 200.517 547.243 201.816 545.054 201.232Z" fill="#2261EF"/>
<path d="M150.994 212.02C148.805 211.436 147.503 209.19 148.087 207.003C148.67 204.816 150.918 203.517 153.107 204.101C155.296 204.685 156.598 206.931 156.014 209.118C155.43 211.305 153.183 212.604 150.994 212.02Z" fill="#2261EF"/>
<path d="M392.213 112.094C390.024 111.51 388.722 109.264 389.306 107.077C389.889 104.89 392.137 103.591 394.326 104.175C396.515 104.759 397.816 107.006 397.233 109.192C396.649 111.379 394.402 112.679 392.213 112.094Z" fill="#2261EF"/>
</g>
</g>
<defs>
<clipPath id="clip0">
<rect width="750" height="220" fill="white"/>
</clipPath>
</defs>
</svg>
