<svg width="83" height="458" viewBox="0 0 83 458" fill="none" xmlns="http://www.w3.org/2000/svg">
<g opacity="0.25">
<path opacity="0.5" d="M-2.60733 457.035L-3.63656 456.501L69.731 347.37L-13.7747 242.807L62.8799 165.875L-0.260261 5.02474L1.04367 4.61287L64.6915 166.162L-11.7024 243.012L71.378 347.136L71.1995 347.479L-2.60733 457.035Z" fill="#2261EF"/>
<path d="M65.0612 170.057C67.2216 169.374 68.4204 167.071 67.7386 164.913C67.0569 162.755 64.7529 161.559 62.5925 162.241C60.432 162.923 59.2333 165.226 59.915 167.384C60.5968 169.543 62.9008 170.739 65.0612 170.057Z" fill="#2261EF"/>
<path d="M71.7477 351.031C73.9082 350.348 75.1069 348.046 74.4251 345.887C73.7434 343.729 71.4394 342.533 69.279 343.215C67.1186 343.897 65.9198 346.2 66.6016 348.359C67.2833 350.517 69.5873 351.713 71.7477 351.031Z" fill="#2261EF"/>
</g>
</svg>
