<svg width="1600" height="920" viewBox="0 0 1600 920" fill="none" xmlns="http://www.w3.org/2000/svg">
<g opacity="0.25">
<path opacity="0.5" d="M-6.00007 634.218L-2.50011 634.218L341 786.276L524.563 670.91L524.865 670.668L753.147 629.052L829.203 443.381L829.747 443.441L1176.43 445.943L1427.08 328.73L1619.13 171.521L1619.86 172.425L1427.78 329.906L1176.55 447.331L830.141 444.859L754.115 630.258L753.813 630.5L525.259 672.086L341 787.718L-6.00007 634.218Z" fill="#2261EF"/>
<path d="M1175.92 450.56C1178.17 450.808 1180.2 449.186 1180.45 446.936C1180.69 444.686 1179.07 442.661 1176.82 442.413C1174.57 442.164 1172.54 443.787 1172.29 446.037C1172.04 448.286 1173.67 450.311 1175.92 450.56Z" fill="#2261EF"/>
<path d="M1426.84 333.377C1429.09 333.625 1431.12 332.003 1431.37 329.753C1431.62 327.503 1429.99 325.478 1427.74 325.23C1425.49 324.981 1423.46 326.604 1423.21 328.854C1422.97 331.103 1424.59 333.129 1426.84 333.377Z" fill="#2261EF"/>
<path d="M829.238 448.058C831.49 448.306 833.517 446.684 833.765 444.434C834.013 442.184 832.389 440.159 830.137 439.911C827.885 439.662 825.858 441.285 825.61 443.534C825.362 445.784 826.986 447.809 829.238 448.058Z" fill="#2261EF"/>
<path d="M524.598 675.587C526.85 675.835 528.877 674.212 529.125 671.963C529.373 669.713 527.748 667.688 525.496 667.44C523.244 667.191 521.218 668.814 520.97 671.063C520.722 673.313 522.346 675.338 524.598 675.587Z" fill="#2261EF"/>
<path d="M340.077 790.815C342.329 791.063 344.356 789.441 344.604 787.191C344.852 784.942 343.228 782.916 340.976 782.668C338.724 782.42 336.697 784.042 336.449 786.292C336.201 788.542 337.826 790.567 340.077 790.815Z" fill="#2261EF"/>
<path d="M753.182 633.728C755.434 633.977 757.46 632.354 757.708 630.105C757.957 627.855 756.332 625.83 754.08 625.581C751.828 625.333 749.801 626.955 749.553 629.205C749.305 631.455 750.93 633.48 753.182 633.728Z" fill="#2261EF"/>
</g>
</svg>
