<svg width="1600" height="565" viewBox="0 0 1600 565" fill="none" xmlns="http://www.w3.org/2000/svg">
<g opacity="0.25">
<path opacity="0.5" d="M-21.0955 462.218L-17.5956 462.218L325.904 614.276L509.468 498.91L509.77 498.668L738.051 457.052L814.108 271.381L814.652 271.441L1161.33 273.943L1411.98 156.73L1604.04 -0.479331L1604.76 0.425321L1412.68 157.906L1161.45 275.331L815.046 272.859L739.019 458.258L738.717 458.5L510.163 500.086L325.904 615.718L-21.0955 462.218Z" fill="#2261EF"/>
<path d="M1160.82 278.56C1163.08 278.808 1165.1 277.186 1165.35 274.936C1165.6 272.686 1163.97 270.661 1161.72 270.413C1159.47 270.164 1157.44 271.787 1157.19 274.036C1156.95 276.286 1158.57 278.311 1160.82 278.56Z" fill="#2261EF"/>
<path d="M1411.75 161.377C1414 161.625 1416.03 160.003 1416.27 157.753C1416.52 155.503 1414.9 153.478 1412.65 153.23C1410.39 152.982 1408.37 154.604 1408.12 156.854C1407.87 159.104 1409.49 161.129 1411.75 161.377Z" fill="#2261EF"/>
<path d="M814.143 276.058C816.395 276.306 818.421 274.684 818.67 272.434C818.918 270.184 817.293 268.159 815.041 267.911C812.789 267.662 810.763 269.285 810.514 271.534C810.266 273.784 811.891 275.809 814.143 276.058Z" fill="#2261EF"/>
<path d="M509.502 503.586C511.754 503.835 513.781 502.212 514.029 499.963C514.277 497.713 512.653 495.688 510.401 495.439C508.149 495.191 506.122 496.814 505.874 499.063C505.626 501.313 507.25 503.338 509.502 503.586Z" fill="#2261EF"/>
<path d="M738.086 461.728C740.338 461.977 742.365 460.354 742.613 458.105C742.861 455.855 741.236 453.83 738.984 453.581C736.732 453.333 734.706 454.955 734.458 457.205C734.21 459.455 735.834 461.48 738.086 461.728Z" fill="#2261EF"/>
</g>
</svg>
