<svg width="1103" height="793" viewBox="0 0 1103 793" fill="none" xmlns="http://www.w3.org/2000/svg">
<g opacity="0.6">
<path opacity="0.6" d="M172.337 725.181L5.12769 296.983L7.73219 295.42L174.941 724.139L172.337 725.181Z" fill="#00385A"/>
</g>
<g opacity="0.6">
<path opacity="0.6" d="M172.337 725.181L5.12769 296.983L7.73219 295.42L174.941 724.139L172.337 725.181Z" fill="#00385A"/>
</g>
<g opacity="0.6">
<path opacity="0.6" d="M867.217 537.649L864.091 536.607L1007.34 17.7683L1009.94 18.8102L867.217 537.649Z" fill="#00385A"/>
</g>
<g opacity="0.6">
<path opacity="0.6" d="M1008.38 19.8521L493.732 -122.881L494.773 -126.006L1008.9 16.7265L1008.38 19.8521Z" fill="#00385A"/>
</g>
<g opacity="0.6">
<path opacity="0.6" d="M342.671 398.563L6.16956 297.504L6.69049 294.378L343.192 395.437L342.671 398.563Z" fill="#00385A"/>
</g>
<g opacity="0.6">
<path opacity="0.6" d="M449.455 424.088L448.934 425.65L448.413 427.213L390.073 411.586L389.031 411.065L387.468 410.544L348.401 400.125L344.754 399.083H344.233H343.712H343.192V398.563H342.671V397.521V397H343.192V396.479V395.958V395.437L344.233 395.958H344.754L346.317 396.479L348.921 397L387.468 407.418L388.51 407.939H390.073L449.455 424.088Z" fill="#00385A"/>
<path opacity="0.6" d="M614.059 467.845C613.539 468.366 613.018 468.887 612.497 469.408C611.976 469.929 611.455 470.45 610.934 470.971L500.503 441.278L501.024 439.715L501.545 438.152L614.059 467.845Z" fill="#00385A"/>
<path opacity="0.6" d="M866.175 535.566V536.607V537.128L865.654 538.691H864.612L863.049 538.17L860.445 537.649H859.924L789.082 518.896L667.191 486.078C667.191 485.557 667.712 485.036 667.712 484.515C667.712 483.994 668.233 483.473 668.233 482.952L790.644 515.77L856.799 533.482L860.445 534.524L861.487 535.045H862.008L864.091 535.566H864.612H865.133H866.175Z" fill="#00385A"/>
</g>
<g opacity="0.6">
<path opacity="0.6" d="M174.941 725.181L172.337 723.618L341.629 396.479L344.233 398.042L174.941 725.181Z" fill="#00385A"/>
</g>
<g opacity="0.6">
<path opacity="0.6" d="M174.941 725.181L172.337 723.618L341.629 396.479L344.233 398.042L174.941 725.181Z" fill="#00385A"/>
</g>
<g opacity="0.6">
<path opacity="0.6" d="M344.233 397.521L341.629 396.479L493.211 -124.965L495.815 -123.923L344.233 397.521Z" fill="#00385A"/>
</g>
<g opacity="0.6">
<path opacity="0.6" d="M919.307 287.606L916.181 286.564L1007.34 17.7682L1009.94 18.8101L919.307 287.606Z" fill="#00385A"/>
</g>
<g opacity="0.6">
<path opacity="0.6" d="M918.707 286.816L916.157 286.288L864.262 536.74L866.813 537.269L918.707 286.816Z" fill="#00385A"/>
</g>
<g opacity="0.6">
<path opacity="0.6" d="M916.702 288.127L493.211 -122.881L495.294 -125.485L918.786 285.522L916.702 288.127Z" fill="#00385A"/>
</g>
<g opacity="0.6">
<path opacity="0.6" d="M475.5 222.49V224.053L474.979 225.616L397.365 214.677L394.761 214.156H392.156L391.114 213.635H388.51L386.947 213.114H386.426H385.385V212.072V211.551V211.03L385.905 209.467V209.988H386.426H387.468L390.073 210.509H391.635L394.24 211.03H395.282H396.844L398.407 211.551L475.5 222.49Z" fill="#00385A"/>
<path opacity="0.6" d="M590.619 238.639V239.16L589.056 238.639H590.619Z" fill="#00385A"/>
<path opacity="0.6" d="M918.265 285.522L917.744 286.043V286.564V287.085V288.648H917.223L916.181 288.127L912.014 287.606L810.439 273.541L680.735 254.788H678.651L676.567 254.267L643.23 249.578L643.751 248.016L644.272 246.453L674.484 250.62L676.567 251.141H678.651L809.397 269.894L905.763 283.438L912.014 284.48H913.056L914.097 285.001H915.66H916.702L918.265 285.522Z" fill="#00385A"/>
</g>
<g opacity="0.6">
<path opacity="0.6" d="M344.233 397.521L341.629 397L384.343 211.03L386.947 211.551L344.233 397.521Z" fill="#00385A"/>
</g>
<g opacity="0.6">
<path opacity="0.6" d="M6.69049 297.504L6.16956 294.378L385.385 209.989L385.905 213.114L6.69049 297.504Z" fill="#00385A"/>
</g>
<g opacity="0.6">
<path opacity="0.6" d="M488.002 279.271V280.834L487.481 282.397L480.188 277.709L479.146 276.667L478.105 276.146L395.802 220.407L394.761 219.365L393.198 218.324L389.552 216.24L386.947 214.156L386.426 213.635H385.905L385.384 213.114L384.864 212.593L385.384 211.552V211.031L386.426 209.989L387.468 210.51V211.031L389.031 212.072H389.552L391.114 213.114L394.24 215.198L395.282 216.24L396.844 216.761L480.188 273.541L481.751 274.583L482.793 275.625L488.002 279.271Z" fill="#00385A"/>
<path opacity="0.6" d="M606.246 358.973L601.558 357.931L596.87 356.368L547.905 323.55L546.342 322.508L545.301 321.466L534.362 314.173L534.883 312.611L535.404 311.048L546.863 318.862L547.905 319.383L548.947 320.424L606.246 358.973Z" fill="#00385A"/>
<path opacity="0.6" d="M866.175 535.566L865.654 537.128L865.133 538.691L864.612 538.17L864.091 537.649L862.529 536.607L861.487 536.087L860.445 535.566L857.32 533.482L802.104 495.975L669.275 405.856C668.754 404.814 668.233 403.772 667.712 402.73C667.191 401.688 666.67 400.647 665.629 399.605L803.146 492.85L860.445 531.919L862.008 532.961L864.091 534.003L865.654 535.045L866.696 535.566H866.175Z" fill="#00385A"/>
</g>
<g opacity="0.6">
<path opacity="0.6" d="M174.941 725.181L172.337 724.139L384.343 210.51L386.947 212.072L174.941 725.181Z" fill="#00385A"/>
</g>
<g opacity="0.6">
<path opacity="0.6" d="M174.941 725.181L172.337 724.139L384.343 210.51L386.947 212.072L174.941 725.181Z" fill="#00385A"/>
</g>
<g opacity="0.6">
<path opacity="0.6" d="M386.947 212.072L384.343 211.03L493.211 -124.965L495.815 -123.923L386.947 212.072Z" fill="#00385A"/>
</g>
<g opacity="0.6">
<path opacity="0.6" d="M385.905 213.114L385.385 209.989L614.059 155.813L614.58 158.938L385.905 213.114Z" fill="#00385A"/>
</g>
<g opacity="0.6">
<path opacity="0.6" d="M917.223 288.648L614.059 158.938L615.101 155.813L918.265 285.522L917.223 288.648Z" fill="#00385A"/>
</g>
<g opacity="0.6">
<path opacity="0.6" d="M491.127 267.811V268.332L482.793 275.625L481.751 276.667L480.188 277.709L389.552 357.931L387.989 359.493L386.426 360.535L348.401 394.395L346.317 396.479L344.754 397.521L344.233 398.042H343.713V398.563L343.192 397H342.671L342.15 395.958L342.671 395.437L343.713 394.395H344.233L345.275 392.832H345.796L346.838 391.791L386.426 356.889L387.989 355.326L389.552 354.284L478.105 276.146L479.146 274.583L480.188 273.541L488.002 267.29L489.564 267.811H491.127Z" fill="#00385A"/>
<path opacity="0.6" d="M615.101 158.417V158.938H614.58L614.06 159.459L613.018 160.501L610.934 162.585H610.413L566.658 201.133L565.095 200.612H563.532L608.851 160.501V159.98L611.455 157.896L611.976 157.375L612.497 156.854L613.018 156.334L613.539 155.813L614.58 156.854V157.375L615.101 158.417Z" fill="#00385A"/>
</g>
<g opacity="0.6">
<path opacity="0.6" d="M614.58 158.938L614.059 155.812L1008.38 16.7262L1008.9 19.8517L614.58 158.938Z" fill="#00385A"/>
</g>
<g opacity="0.6">
<path opacity="0.6" d="M864.612 538.17L613.539 158.417L615.622 156.333L866.696 536.086L864.612 538.17Z" fill="#00385A"/>
</g>
<g opacity="0.6">
<path opacity="0.6" d="M613.018 157.896L493.211 -123.402L495.815 -124.965L615.622 156.334L613.018 157.896Z" fill="#00385A"/>
</g>
<g opacity="0.6">
<path opacity="0.6" d="M465.082 525.147L428.098 615.267L397.365 689.759L395.803 692.884V693.926L395.282 694.447L394.761 695.489V696.01L393.719 695.489V694.968H393.198L392.156 694.447V693.926H392.677L393.198 692.363V691.842L394.24 690.279V689.759L394.761 688.717V688.196L425.494 613.704L461.957 524.105L463.519 524.626L465.082 525.147Z" fill="#00385A"/>
<path opacity="0.6" d="M519.777 391.791L502.587 433.465L505.191 422.525L508.317 412.107L517.172 390.749L518.214 391.27L519.777 391.791Z" fill="#00385A"/>
<path opacity="0.6" d="M562.49 287.086L548.947 320.425L548.426 321.987L547.905 323.55L540.613 341.262H539.05L537.487 340.741L545.301 321.466L545.822 320.425L546.863 318.862L559.886 286.565H561.449L562.49 287.086Z" fill="#00385A"/>
<path opacity="0.6" d="M615.622 157.897V158.417V158.938L615.101 159.459L614.58 160.501L613.018 164.148L583.326 237.077L581.764 236.556L580.201 236.035L610.413 162.585H610.934L611.976 159.459L612.497 157.897L613.018 157.376V156.855L614.58 157.376L615.622 157.897Z" fill="#00385A"/>
</g>
<g opacity="0.6">
<path opacity="0.6" d="M392.156 695.489L384.343 211.552L386.947 211.031L394.761 694.968L392.156 695.489Z" fill="#00385A"/>
</g>
<g opacity="0.6">
<path opacity="0.6" d="M392.156 695.489L341.629 397.521L344.233 397L394.761 694.968L392.156 695.489Z" fill="#00385A"/>
</g>
<g opacity="0.6">
<path opacity="0.6" d="M392.677 696.531L5.64862 296.983L7.21134 294.899L394.761 693.926L392.677 696.531Z" fill="#00385A"/>
</g>
<g opacity="0.6">
<path opacity="0.6" d="M393.719 696.53L393.198 693.926L865.133 535.565L866.175 538.691L393.719 696.53Z" fill="#00385A"/>
</g>
<g opacity="0.6">
<path opacity="0.6" d="M173.899 726.223L173.378 723.098L393.198 693.405L393.719 697.052L173.899 726.223Z" fill="#00385A"/>
</g>
<g opacity="0.6">
<path opacity="0.6" d="M173.899 726.223L173.378 723.098L393.198 693.405L393.719 697.052L173.899 726.223Z" fill="#00385A"/>
</g>
<g opacity="0.6">
<path opacity="0.6" d="M877.784 794.312L878.407 791.25L393.499 692.472L392.875 695.535L877.784 794.312Z" fill="#00385A"/>
</g>
<g opacity="0.6">
<path opacity="0.6" d="M877.114 791.859L916.181 287.085H919.307L880.239 791.859H877.114Z" fill="#00385A"/>
</g>
<g opacity="0.6">
<path opacity="0.6" d="M877.114 791.859L864.091 537.128H867.217L880.239 791.859H877.114Z" fill="#00385A"/>
</g>
<g opacity="0.6">
<path opacity="0.6" d="M613.539 158.938L281.725 -39.0123L283.288 -41.6169L615.101 155.813L613.539 158.938Z" fill="#00385A"/>
</g>
<g opacity="0.6">
<path opacity="0.6" d="M384.343 212.073L281.205 -39.5329L283.809 -41.0957L386.947 210.51L384.343 212.073Z" fill="#00385A"/>
</g>
<g opacity="0.6">
<path opacity="0.6" d="M341.629 397.521L281.205 -40.054L283.809 -40.575L344.233 397L341.629 397.521Z" fill="#00385A"/>
</g>
<g opacity="0.6">
<path opacity="0.6" d="M7.73227 296.983L5.64862 294.899L281.725 -41.0957L283.809 -39.012L7.73227 296.983Z" fill="#00385A"/>
</g>
<g opacity="0.6">
<path opacity="0.6" d="M356.735 950.22L355.693 947.094L878.156 790.297L878.677 793.422L356.735 950.22Z" fill="#00385A"/>
</g>
<g opacity="0.6">
<path opacity="0.6" d="M354.651 948.136L392.156 694.968L394.761 695.488L357.777 948.657L354.651 948.136Z" fill="#00385A"/>
</g>
<g opacity="0.6">
<path opacity="0.6" d="M354.651 948.657L341.629 397H344.233L357.777 948.136L354.651 948.657Z" fill="#00385A"/>
</g>
<g opacity="0.6">
<path opacity="0.6" d="M355.172 949.699L172.337 725.702L174.941 723.618L357.256 947.615L355.172 949.699Z" fill="#00385A"/>
</g>
<g opacity="0.6">
<path opacity="0.6" d="M355.172 949.699L172.337 725.702L174.941 723.618L357.256 947.615L355.172 949.699Z" fill="#00385A"/>
</g>
<g opacity="0.6">
<path opacity="0.6" d="M356.735 950.22L355.693 947.094L878.156 790.297L878.677 793.422L356.735 950.22Z" fill="#00385A"/>
</g>
<g opacity="0.6">
<path opacity="0.6" d="M354.651 948.136L392.156 694.968L394.761 695.488L357.777 948.657L354.651 948.136Z" fill="#00385A"/>
</g>
<g opacity="0.6">
<path opacity="0.6" d="M354.651 948.657L341.629 397H344.233L357.777 948.136L354.651 948.657Z" fill="#00385A"/>
</g>
<g opacity="0.6">
<path opacity="0.6" d="M355.172 949.699L172.337 725.702L174.941 723.618L357.256 947.615L355.172 949.699Z" fill="#00385A"/>
</g>
<g opacity="0.6">
<path opacity="0.6" d="M355.172 949.699L172.337 725.702L174.941 723.618L357.256 947.615L355.172 949.699Z" fill="#00385A"/>
</g>
<g opacity="0.6">
<path opacity="0.6" d="M351.005 957.513L350.484 954.908L878.156 790.297L878.677 793.422L351.005 957.513Z" fill="#00385A"/>
</g>
<g opacity="0.6">
<path opacity="0.6" d="M349.442 955.95L392.156 694.968L394.761 695.488L352.047 956.471L349.442 955.95Z" fill="#00385A"/>
</g>
<g opacity="0.6">
<path opacity="0.6" d="M349.442 956.471L341.629 397H344.233L352.047 955.95L349.442 956.471Z" fill="#00385A"/>
</g>
<g opacity="0.6">
<path opacity="0.6" d="M349.442 957.513L172.337 725.702L174.941 723.618L352.047 954.908L349.442 957.513Z" fill="#00385A"/>
</g>
<g opacity="0.6">
<path opacity="0.6" d="M349.442 957.513L172.337 725.702L174.941 723.618L352.047 954.908L349.442 957.513Z" fill="#00385A"/>
</g>
<g opacity="0.6">
<path opacity="0.6" d="M879.718 792.901L877.114 791.338L1095.89 358.973L1097.98 360.535L879.718 792.901Z" fill="#00385A"/>
</g>
<g opacity="0.6">
<path opacity="0.6" d="M1096.41 361.056L614.059 158.938L615.101 155.813L1097.45 357.931L1096.41 361.056Z" fill="#00385A"/>
</g>
<g opacity="0.6">
<path opacity="0.6" d="M1096.41 361.056L917.223 288.648L918.265 285.523L1097.45 357.931L1096.41 361.056Z" fill="#00385A"/>
</g>
<g opacity="0.6">
<path opacity="0.6" d="M1095.37 360.014L1007.34 18.8102L1009.94 17.7683L1098.5 358.973L1095.37 360.014Z" fill="#00385A"/>
</g>
<g opacity="0.6">
<path opacity="0.6" d="M866.175 538.17L864.612 535.565L1096.41 358.452L1097.45 361.056L866.175 538.17Z" fill="#00385A"/>
</g>
<path d="M179.629 725.702C179.108 729.348 175.462 731.953 172.336 731.432C169.211 730.911 167.128 727.265 167.648 723.618C168.69 719.972 171.816 717.367 174.941 717.888C178.066 718.409 180.15 722.055 179.629 725.702Z" fill="#00385A"/>
<path d="M12.4203 296.983C11.8994 300.629 8.25311 303.234 5.12772 302.713C2.00232 302.192 -0.0813261 298.545 0.439573 294.899C0.960473 291.253 4.60682 288.648 7.73221 289.169C11.3785 290.211 12.9412 293.336 12.4203 296.983Z" fill="#00385A"/>
<path d="M179.629 725.702C179.108 729.348 175.462 731.953 172.336 731.432C169.211 730.911 167.128 727.265 167.648 723.618C168.69 719.972 171.816 717.367 174.941 717.888C178.066 718.409 180.15 722.055 179.629 725.702Z" fill="#00385A"/>
<path d="M12.4203 296.983C11.8994 300.629 8.25311 303.234 5.12772 302.713C2.00232 302.192 -0.0813261 298.545 0.439573 294.899C0.960473 291.253 4.60682 288.648 7.73221 289.169C11.3785 290.211 12.9412 293.336 12.4203 296.983Z" fill="#00385A"/>
<path d="M871.384 538.17C870.863 541.816 867.217 544.421 864.091 543.9C860.966 543.379 858.882 539.732 859.403 536.086C859.924 532.44 863.57 529.835 866.696 530.356C870.342 530.877 872.426 534.523 871.384 538.17Z" fill="#00385A"/>
<path d="M1007.51 24.9265C1010.89 25.6335 1014.25 23.2391 1015.02 19.5783C1015.78 15.9175 1013.66 12.3767 1010.28 11.6696C1006.91 10.9626 1003.55 13.3571 1002.78 17.0178C1002.01 20.6786 1004.13 24.2194 1007.51 24.9265Z" fill="#00385A"/>
<path d="M1007.51 24.9265C1010.89 25.6335 1014.25 23.2391 1015.02 19.5783C1015.78 15.9175 1013.66 12.3767 1010.28 11.6696C1006.91 10.9626 1003.55 13.3571 1002.78 17.0178C1002.01 20.6786 1004.13 24.2194 1007.51 24.9265Z" fill="#00385A"/>
<path d="M12.4203 296.983C11.8994 300.629 8.25311 303.234 5.12772 302.713C2.00232 302.192 -0.0813261 298.545 0.439573 294.899C0.960473 291.253 4.60682 288.648 7.73221 289.169C11.3785 290.211 12.9412 293.336 12.4203 296.983Z" fill="#00385A"/>
<path d="M341.827 403.642C345.206 404.349 348.566 401.954 349.332 398.293C350.097 394.632 347.979 391.092 344.6 390.385C341.221 389.678 337.861 392.073 337.095 395.734C336.33 399.395 338.448 402.935 341.827 403.642Z" fill="#00385A"/>
<path d="M871.384 538.17C870.863 541.816 867.217 544.421 864.091 543.9C860.966 543.379 858.882 539.732 859.403 536.086C859.924 532.44 863.57 529.835 866.696 530.356C870.342 530.877 872.426 534.523 871.384 538.17Z" fill="#00385A"/>
<path d="M341.827 403.642C345.206 404.349 348.566 401.954 349.332 398.293C350.097 394.632 347.979 391.092 344.6 390.385C341.221 389.678 337.861 392.073 337.095 395.734C336.33 399.395 338.448 402.935 341.827 403.642Z" fill="#00385A"/>
<path d="M179.629 725.702C179.108 729.348 175.462 731.953 172.336 731.432C169.211 730.911 167.128 727.265 167.648 723.618C168.69 719.972 171.816 717.367 174.941 717.888C178.066 718.409 180.15 722.055 179.629 725.702Z" fill="#00385A"/>
<path d="M341.827 403.642C345.206 404.349 348.566 401.954 349.332 398.293C350.097 394.632 347.979 391.092 344.6 390.385C341.221 389.678 337.861 392.073 337.095 395.734C336.33 399.395 338.448 402.935 341.827 403.642Z" fill="#00385A"/>
<path d="M179.629 725.702C179.108 729.348 175.462 731.953 172.336 731.432C169.211 730.911 167.128 727.265 167.648 723.618C168.69 719.972 171.816 717.367 174.941 717.888C178.066 718.409 180.15 722.055 179.629 725.702Z" fill="#00385A"/>
<path d="M341.827 403.642C345.206 404.349 348.566 401.954 349.332 398.293C350.097 394.632 347.979 391.092 344.6 390.385C341.221 389.678 337.861 392.073 337.095 395.734C336.33 399.395 338.448 402.935 341.827 403.642Z" fill="#00385A"/>
<path d="M341.827 403.642C345.206 404.349 348.566 401.954 349.332 398.293C350.097 394.632 347.979 391.092 344.6 390.385C341.221 389.678 337.861 392.073 337.095 395.734C336.33 399.395 338.448 402.935 341.827 403.642Z" fill="#00385A"/>
<path d="M1007.51 24.9265C1010.89 25.6335 1014.25 23.2391 1015.02 19.5783C1015.78 15.9175 1013.66 12.3767 1010.28 11.6696C1006.91 10.9626 1003.55 13.3571 1002.78 17.0178C1002.01 20.6786 1004.13 24.2194 1007.51 24.9265Z" fill="#00385A"/>
<path d="M916.36 293.745C919.739 294.452 923.099 292.056 923.863 288.395C924.628 284.734 922.509 281.193 919.129 280.487C915.75 279.781 912.39 282.177 911.625 285.838C910.86 289.499 912.98 293.039 916.36 293.745Z" fill="#00385A"/>
<path d="M871.384 538.17C870.863 541.816 867.217 544.421 864.091 543.9C860.966 543.379 858.882 539.732 859.403 536.086C859.924 532.44 863.57 529.835 866.696 530.356C870.342 530.877 872.426 534.523 871.384 538.17Z" fill="#00385A"/>
<path d="M916.36 293.745C919.739 294.452 923.099 292.056 923.863 288.395C924.628 284.734 922.509 281.193 919.129 280.487C915.75 279.781 912.39 282.177 911.625 285.838C910.86 289.499 912.98 293.039 916.36 293.745Z" fill="#00385A"/>
<path d="M916.36 293.745C919.739 294.452 923.099 292.056 923.863 288.395C924.628 284.734 922.509 281.193 919.129 280.487C915.75 279.781 912.39 282.177 911.625 285.838C910.86 289.499 912.98 293.039 916.36 293.745Z" fill="#00385A"/>
<path d="M916.36 293.745C919.739 294.452 923.099 292.056 923.863 288.395C924.628 284.734 922.509 281.193 919.129 280.487C915.75 279.781 912.39 282.177 911.625 285.838C910.86 289.499 912.98 293.039 916.36 293.745Z" fill="#00385A"/>
<path d="M391.635 212.593C391.114 216.24 387.468 218.844 384.343 218.323C381.217 217.802 379.134 214.156 379.654 210.509C380.696 206.863 383.822 204.258 386.947 204.779C390.073 205.3 392.156 208.947 391.635 212.593Z" fill="#00385A"/>
<path d="M341.827 403.642C345.206 404.349 348.566 401.954 349.332 398.293C350.097 394.632 347.979 391.092 344.6 390.385C341.221 389.678 337.861 392.073 337.095 395.734C336.33 399.395 338.448 402.935 341.827 403.642Z" fill="#00385A"/>
<path d="M391.635 212.593C391.114 216.24 387.468 218.844 384.343 218.323C381.217 217.802 379.134 214.156 379.654 210.509C380.696 206.863 383.822 204.258 386.947 204.779C390.073 205.3 392.156 208.947 391.635 212.593Z" fill="#00385A"/>
<path d="M12.4203 296.983C11.8994 300.629 8.25311 303.234 5.12772 302.713C2.00232 302.192 -0.0813261 298.545 0.439573 294.899C0.960473 291.253 4.60682 288.648 7.73221 289.169C11.3785 290.211 12.9412 293.336 12.4203 296.983Z" fill="#00385A"/>
<path d="M391.635 212.593C391.114 216.24 387.468 218.844 384.343 218.323C381.217 217.802 379.134 214.156 379.654 210.509C380.696 206.863 383.822 204.258 386.947 204.779C390.073 205.3 392.156 208.947 391.635 212.593Z" fill="#00385A"/>
<path d="M871.384 538.17C870.863 541.816 867.217 544.421 864.091 543.9C860.966 543.379 858.882 539.732 859.403 536.086C859.924 532.44 863.57 529.835 866.696 530.356C870.342 530.877 872.426 534.523 871.384 538.17Z" fill="#00385A"/>
<path d="M391.635 212.593C391.114 216.24 387.468 218.844 384.343 218.323C381.217 217.802 379.134 214.156 379.654 210.509C380.696 206.863 383.822 204.258 386.947 204.779C390.073 205.3 392.156 208.947 391.635 212.593Z" fill="#00385A"/>
<path d="M179.629 725.702C179.108 729.348 175.462 731.953 172.336 731.432C169.211 730.911 167.128 727.265 167.648 723.618C168.69 719.972 171.816 717.367 174.941 717.888C178.066 718.409 180.15 722.055 179.629 725.702Z" fill="#00385A"/>
<path d="M391.635 212.593C391.114 216.24 387.468 218.844 384.343 218.323C381.217 217.802 379.134 214.156 379.654 210.509C380.696 206.863 383.822 204.258 386.947 204.779C390.073 205.3 392.156 208.947 391.635 212.593Z" fill="#00385A"/>
<path d="M179.629 725.702C179.108 729.348 175.462 731.953 172.336 731.432C169.211 730.911 167.128 727.265 167.648 723.618C168.69 719.972 171.816 717.367 174.941 717.888C178.066 718.409 180.15 722.055 179.629 725.702Z" fill="#00385A"/>
<path d="M391.635 212.593C391.114 216.24 387.468 218.844 384.343 218.323C381.217 217.802 379.134 214.156 379.654 210.509C380.696 206.863 383.822 204.258 386.947 204.779C390.073 205.3 392.156 208.947 391.635 212.593Z" fill="#00385A"/>
<path d="M391.635 212.593C391.114 216.24 387.468 218.844 384.343 218.323C381.217 217.802 379.134 214.156 379.654 210.509C380.696 206.863 383.822 204.258 386.947 204.779C390.073 205.3 392.156 208.947 391.635 212.593Z" fill="#00385A"/>
<path d="M391.635 212.593C391.114 216.24 387.468 218.844 384.343 218.323C381.217 217.802 379.134 214.156 379.654 210.509C380.696 206.863 383.822 204.258 386.947 204.779C390.073 205.3 392.156 208.947 391.635 212.593Z" fill="#00385A"/>
<path d="M620.31 158.417C619.789 162.064 616.143 164.669 613.018 164.148C609.892 163.627 607.809 159.98 608.33 156.334C609.371 152.687 612.497 150.083 615.622 150.604C619.268 151.125 621.352 154.771 620.31 158.417Z" fill="#00385A"/>
<path d="M916.36 293.745C919.739 294.452 923.099 292.056 923.863 288.395C924.628 284.734 922.509 281.193 919.129 280.487C915.75 279.781 912.39 282.177 911.625 285.838C910.86 289.499 912.98 293.039 916.36 293.745Z" fill="#00385A"/>
<path d="M620.31 158.417C619.789 162.064 616.143 164.669 613.018 164.148C609.892 163.627 607.809 159.98 608.33 156.334C609.371 152.687 612.497 150.083 615.622 150.604C619.268 151.125 621.352 154.771 620.31 158.417Z" fill="#00385A"/>
<path d="M341.827 403.642C345.206 404.349 348.566 401.954 349.332 398.293C350.097 394.632 347.979 391.092 344.6 390.385C341.221 389.678 337.861 392.073 337.095 395.734C336.33 399.395 338.448 402.935 341.827 403.642Z" fill="#00385A"/>
<path d="M620.31 158.417C619.789 162.064 616.143 164.669 613.018 164.148C609.892 163.627 607.809 159.98 608.33 156.334C609.371 152.687 612.497 150.083 615.622 150.604C619.268 151.125 621.352 154.771 620.31 158.417Z" fill="#00385A"/>
<path d="M1007.51 24.9265C1010.89 25.6335 1014.25 23.2391 1015.02 19.5783C1015.78 15.9175 1013.66 12.3767 1010.28 11.6696C1006.91 10.9626 1003.55 13.3571 1002.78 17.0178C1002.01 20.6786 1004.13 24.2194 1007.51 24.9265Z" fill="#00385A"/>
<path d="M620.31 158.417C619.789 162.064 616.143 164.669 613.018 164.148C609.892 163.627 607.809 159.98 608.33 156.334C609.371 152.687 612.497 150.083 615.622 150.604C619.268 151.125 621.352 154.771 620.31 158.417Z" fill="#00385A"/>
<path d="M871.384 538.17C870.863 541.816 867.217 544.421 864.091 543.9C860.966 543.379 858.882 539.732 859.403 536.086C859.924 532.44 863.57 529.835 866.696 530.356C870.342 530.877 872.426 534.523 871.384 538.17Z" fill="#00385A"/>
<path d="M620.31 158.417C619.789 162.064 616.143 164.669 613.018 164.148C609.892 163.627 607.809 159.98 608.33 156.334C609.371 152.687 612.497 150.083 615.622 150.604C619.268 151.125 621.352 154.771 620.31 158.417Z" fill="#00385A"/>
<path d="M620.31 158.417C619.789 162.064 616.143 164.669 613.018 164.148C609.892 163.627 607.809 159.98 608.33 156.334C609.371 152.687 612.497 150.083 615.622 150.604C619.268 151.125 621.352 154.771 620.31 158.417Z" fill="#00385A"/>
<path d="M620.31 158.417C619.789 162.064 616.143 164.669 613.018 164.148C609.892 163.627 607.809 159.98 608.33 156.334C609.371 152.687 612.497 150.083 615.622 150.604C619.268 151.125 621.352 154.771 620.31 158.417Z" fill="#00385A"/>
<path d="M399.449 696.53C398.407 700.177 395.282 702.781 392.156 702.26C389.031 701.739 386.947 698.093 387.468 694.446C387.989 690.8 391.635 688.195 394.761 688.716C398.407 689.237 399.97 692.884 399.449 696.53Z" fill="#00385A"/>
<path d="M391.635 212.593C391.114 216.24 387.468 218.844 384.343 218.323C381.217 217.802 379.134 214.156 379.654 210.509C380.696 206.863 383.822 204.258 386.947 204.779C390.073 205.3 392.156 208.947 391.635 212.593Z" fill="#00385A"/>
<path d="M399.449 696.53C398.407 700.177 395.282 702.781 392.156 702.26C389.031 701.739 386.947 698.093 387.468 694.446C387.989 690.8 391.635 688.195 394.761 688.716C398.407 689.237 399.97 692.884 399.449 696.53Z" fill="#00385A"/>
<path d="M341.827 403.642C345.206 404.349 348.566 401.954 349.332 398.293C350.097 394.632 347.979 391.092 344.6 390.385C341.221 389.678 337.861 392.073 337.095 395.734C336.33 399.395 338.448 402.935 341.827 403.642Z" fill="#00385A"/>
<path d="M399.449 696.53C398.407 700.177 395.282 702.781 392.156 702.26C389.031 701.739 386.947 698.093 387.468 694.446C387.989 690.8 391.635 688.195 394.761 688.716C398.407 689.237 399.97 692.884 399.449 696.53Z" fill="#00385A"/>
<path d="M12.4203 296.983C11.8994 300.629 8.25311 303.234 5.12772 302.713C2.00232 302.192 -0.0813261 298.545 0.439573 294.899C0.960473 291.253 4.60682 288.648 7.73221 289.169C11.3785 290.211 12.9412 293.336 12.4203 296.983Z" fill="#00385A"/>
<path d="M399.449 696.53C398.407 700.177 395.282 702.781 392.156 702.26C389.031 701.739 386.947 698.093 387.468 694.446C387.989 690.8 391.635 688.195 394.761 688.716C398.407 689.237 399.97 692.884 399.449 696.53Z" fill="#00385A"/>
<path d="M871.384 538.17C870.863 541.816 867.217 544.421 864.091 543.9C860.966 543.379 858.882 539.732 859.403 536.086C859.924 532.44 863.57 529.835 866.696 530.356C870.342 530.877 872.426 534.523 871.384 538.17Z" fill="#00385A"/>
<path d="M399.449 696.53C398.407 700.177 395.282 702.781 392.156 702.26C389.031 701.739 386.947 698.093 387.468 694.446C387.989 690.8 391.635 688.195 394.761 688.716C398.407 689.237 399.97 692.884 399.449 696.53Z" fill="#00385A"/>
<path d="M179.629 725.702C179.108 729.348 175.462 731.953 172.336 731.432C169.211 730.911 167.128 727.265 167.648 723.618C168.69 719.972 171.816 717.367 174.941 717.888C178.066 718.409 180.15 722.055 179.629 725.702Z" fill="#00385A"/>
<path d="M399.449 696.53C398.407 700.177 395.282 702.781 392.156 702.26C389.031 701.739 386.947 698.093 387.468 694.446C387.989 690.8 391.635 688.195 394.761 688.716C398.407 689.237 399.97 692.884 399.449 696.53Z" fill="#00385A"/>
<path d="M179.629 725.702C179.108 729.348 175.462 731.953 172.336 731.432C169.211 730.911 167.128 727.265 167.648 723.618C168.69 719.972 171.816 717.367 174.941 717.888C178.066 718.409 180.15 722.055 179.629 725.702Z" fill="#00385A"/>
<path d="M399.449 696.53C398.407 700.177 395.282 702.781 392.156 702.26C389.031 701.739 386.947 698.093 387.468 694.446C387.989 690.8 391.635 688.195 394.761 688.716C398.407 689.237 399.97 692.884 399.449 696.53Z" fill="#00385A"/>
<path d="M399.449 696.53C398.407 700.177 395.282 702.781 392.156 702.26C389.031 701.739 386.947 698.093 387.468 694.446C387.989 690.8 391.635 688.195 394.761 688.716C398.407 689.237 399.97 692.884 399.449 696.53Z" fill="#00385A"/>
<path d="M884.406 793.422C883.885 797.068 880.239 799.673 877.114 799.152C873.988 798.631 871.905 794.984 872.426 791.338C872.946 787.692 876.593 785.087 879.718 785.608C883.365 786.129 885.448 789.254 884.406 793.422Z" fill="#00385A"/>
<path d="M916.36 293.745C919.739 294.452 923.099 292.056 923.863 288.395C924.628 284.734 922.509 281.193 919.129 280.487C915.75 279.781 912.39 282.177 911.625 285.838C910.86 289.499 912.98 293.039 916.36 293.745Z" fill="#00385A"/>
<path d="M884.406 793.422C883.885 797.068 880.239 799.673 877.114 799.152C873.988 798.631 871.905 794.984 872.426 791.338C872.946 787.692 876.593 785.087 879.718 785.608C883.365 786.129 885.448 789.254 884.406 793.422Z" fill="#00385A"/>
<path d="M871.384 538.17C870.863 541.816 867.217 544.421 864.091 543.9C860.966 543.379 858.882 539.732 859.403 536.086C859.924 532.44 863.57 529.835 866.696 530.356C870.342 530.877 872.426 534.523 871.384 538.17Z" fill="#00385A"/>
<path d="M884.406 793.422C883.885 797.068 880.239 799.673 877.114 799.152C873.988 798.631 871.905 794.984 872.426 791.338C872.946 787.692 876.593 785.087 879.718 785.608C883.365 786.129 885.448 789.254 884.406 793.422Z" fill="#00385A"/>
<path d="M620.31 158.417C619.789 162.064 616.143 164.669 613.018 164.148C609.892 163.627 607.809 159.98 608.33 156.334C609.371 152.687 612.497 150.083 615.622 150.604C619.268 151.125 621.352 154.771 620.31 158.417Z" fill="#00385A"/>
<path d="M391.635 212.593C391.114 216.24 387.468 218.844 384.343 218.323C381.217 217.802 379.134 214.156 379.654 210.509C380.696 206.863 383.822 204.258 386.947 204.779C390.073 205.3 392.156 208.947 391.635 212.593Z" fill="#00385A"/>
<path d="M341.827 403.642C345.206 404.349 348.566 401.954 349.332 398.293C350.097 394.632 347.979 391.092 344.6 390.385C341.221 389.678 337.861 392.073 337.095 395.734C336.33 399.395 338.448 402.935 341.827 403.642Z" fill="#00385A"/>
<path d="M12.4203 296.983C11.8994 300.629 8.25311 303.234 5.12772 302.713C2.00232 302.192 -0.0813261 298.545 0.439573 294.899C0.960473 291.253 4.60682 288.648 7.73221 289.169C11.3785 290.211 12.9412 293.336 12.4203 296.983Z" fill="#00385A"/>
<path d="M884.406 793.422C883.885 797.068 880.239 799.673 877.114 799.152C873.988 798.631 871.905 794.984 872.426 791.338C872.946 787.692 876.593 785.087 879.718 785.608C883.365 786.129 885.448 789.254 884.406 793.422Z" fill="#00385A"/>
<path d="M399.449 696.53C398.407 700.177 395.282 702.781 392.156 702.26C389.031 701.739 386.947 698.093 387.468 694.446C387.989 690.8 391.635 688.195 394.761 688.716C398.407 689.237 399.97 692.884 399.449 696.53Z" fill="#00385A"/>
<path d="M341.827 403.642C345.206 404.349 348.566 401.954 349.332 398.293C350.097 394.632 347.979 391.092 344.6 390.385C341.221 389.678 337.861 392.073 337.095 395.734C336.33 399.395 338.448 402.935 341.827 403.642Z" fill="#00385A"/>
<path d="M179.629 725.702C179.108 729.348 175.462 731.953 172.336 731.432C169.211 730.911 167.128 727.265 167.648 723.618C168.69 719.972 171.816 717.367 174.941 717.888C178.066 718.409 180.15 722.055 179.629 725.702Z" fill="#00385A"/>
<path d="M179.629 725.702C179.108 729.348 175.462 731.953 172.336 731.432C169.211 730.911 167.128 727.265 167.648 723.618C168.69 719.972 171.816 717.367 174.941 717.888C178.066 718.409 180.15 722.055 179.629 725.702Z" fill="#00385A"/>
<path d="M884.406 793.422C883.885 797.068 880.239 799.673 877.114 799.152C873.988 798.631 871.905 794.984 872.426 791.338C872.946 787.692 876.593 785.087 879.718 785.608C883.365 786.129 885.448 789.254 884.406 793.422Z" fill="#00385A"/>
<path d="M399.449 696.53C398.407 700.177 395.282 702.781 392.156 702.26C389.031 701.739 386.947 698.093 387.468 694.446C387.989 690.8 391.635 688.195 394.761 688.716C398.407 689.237 399.97 692.884 399.449 696.53Z" fill="#00385A"/>
<path d="M341.827 403.642C345.206 404.349 348.566 401.954 349.332 398.293C350.097 394.632 347.979 391.092 344.6 390.385C341.221 389.678 337.861 392.073 337.095 395.734C336.33 399.395 338.448 402.935 341.827 403.642Z" fill="#00385A"/>
<path d="M179.629 725.702C179.108 729.348 175.462 731.953 172.336 731.432C169.211 730.911 167.128 727.265 167.648 723.618C168.69 719.972 171.816 717.367 174.941 717.888C178.066 718.409 180.15 722.055 179.629 725.702Z" fill="#00385A"/>
<path d="M179.629 725.702C179.108 729.348 175.462 731.953 172.336 731.432C169.211 730.911 167.128 727.265 167.648 723.618C168.69 719.972 171.816 717.367 174.941 717.888C178.066 718.409 180.15 722.055 179.629 725.702Z" fill="#00385A"/>
<path d="M884.406 793.422C883.885 797.068 880.239 799.673 877.114 799.152C873.988 798.631 871.905 794.984 872.426 791.338C872.946 787.692 876.593 785.087 879.718 785.608C883.365 786.129 885.448 789.254 884.406 793.422Z" fill="#00385A"/>
<path d="M399.449 696.53C398.407 700.177 395.282 702.781 392.156 702.26C389.031 701.739 386.947 698.093 387.468 694.446C387.989 690.8 391.635 688.195 394.761 688.716C398.407 689.237 399.97 692.884 399.449 696.53Z" fill="#00385A"/>
<path d="M341.827 403.642C345.206 404.349 348.566 401.954 349.332 398.293C350.097 394.632 347.979 391.092 344.6 390.385C341.221 389.678 337.861 392.073 337.095 395.734C336.33 399.395 338.448 402.935 341.827 403.642Z" fill="#00385A"/>
<path d="M179.629 725.702C179.108 729.348 175.462 731.953 172.336 731.432C169.211 730.911 167.128 727.265 167.648 723.618C168.69 719.972 171.816 717.367 174.941 717.888C178.066 718.409 180.15 722.055 179.629 725.702Z" fill="#00385A"/>
<path d="M179.629 725.702C179.108 729.348 175.462 731.953 172.336 731.432C169.211 730.911 167.128 727.265 167.648 723.618C168.69 719.972 171.816 717.367 174.941 717.888C178.066 718.409 180.15 722.055 179.629 725.702Z" fill="#00385A"/>
<path d="M884.406 793.422C883.885 797.068 880.239 799.673 877.114 799.152C873.988 798.631 871.905 794.984 872.426 791.338C872.946 787.692 876.593 785.087 879.718 785.608C883.365 786.129 885.448 789.254 884.406 793.422Z" fill="#00385A"/>
<path d="M1102.66 361.056C1101.62 364.703 1098.5 367.307 1095.37 366.786C1092.25 366.265 1090.16 362.619 1090.68 358.972C1091.72 355.326 1094.85 352.721 1097.98 353.242C1101.62 353.763 1103.71 357.41 1102.66 361.056Z" fill="#00385A"/>
<path d="M620.31 158.417C619.789 162.064 616.143 164.669 613.018 164.148C609.892 163.627 607.809 159.98 608.33 156.334C609.371 152.687 612.497 150.083 615.622 150.604C619.268 151.125 621.352 154.771 620.31 158.417Z" fill="#00385A"/>
<path d="M1102.66 361.056C1101.62 364.703 1098.5 367.307 1095.37 366.786C1092.25 366.265 1090.16 362.619 1090.68 358.972C1091.72 355.326 1094.85 352.721 1097.98 353.242C1101.62 353.763 1103.71 357.41 1102.66 361.056Z" fill="#00385A"/>
<path d="M916.36 293.745C919.739 294.452 923.099 292.056 923.863 288.395C924.628 284.734 922.509 281.193 919.129 280.487C915.75 279.781 912.39 282.177 911.625 285.838C910.86 289.499 912.98 293.039 916.36 293.745Z" fill="#00385A"/>
<path d="M1102.66 361.056C1101.62 364.703 1098.5 367.307 1095.37 366.786C1092.25 366.265 1090.16 362.619 1090.68 358.972C1091.72 355.326 1094.85 352.721 1097.98 353.242C1101.62 353.763 1103.71 357.41 1102.66 361.056Z" fill="#00385A"/>
<path d="M1007.51 24.9265C1010.89 25.6335 1014.25 23.2391 1015.02 19.5783C1015.78 15.9175 1013.66 12.3767 1010.28 11.6696C1006.91 10.9626 1003.55 13.3571 1002.78 17.0178C1002.01 20.6786 1004.13 24.2194 1007.51 24.9265Z" fill="#00385A"/>
<path d="M1102.66 361.056C1101.62 364.703 1098.5 367.307 1095.37 366.786C1092.25 366.265 1090.16 362.619 1090.68 358.972C1091.72 355.326 1094.85 352.721 1097.98 353.242C1101.62 353.763 1103.71 357.41 1102.66 361.056Z" fill="#00385A"/>
<path d="M871.384 538.17C870.863 541.816 867.217 544.421 864.091 543.9C860.966 543.379 858.882 539.732 859.403 536.086C859.924 532.44 863.57 529.835 866.696 530.356C870.342 530.877 872.426 534.523 871.384 538.17Z" fill="#00385A"/>
<path d="M1102.66 361.056C1101.62 364.703 1098.5 367.307 1095.37 366.786C1092.25 366.265 1090.16 362.619 1090.68 358.972C1091.72 355.326 1094.85 352.721 1097.98 353.242C1101.62 353.763 1103.71 357.41 1102.66 361.056Z" fill="#00385A"/>
</svg>
